<svg xmlns="http://www.w3.org/2000/svg" width="32" height="32" viewBox="0 0 32 32"><g transform="translate(-411 186.935)"><path style="line-height:normal;text-indent:0;text-align:start;text-decoration-line:none;text-decoration-style:solid;text-decoration-color:#000;text-transform:none;block-progression:tb;isolation:auto;mix-blend-mode:normal" fill="#2b4255" fill-rule="evenodd" d="m 419.99219,-168.69141 a 0.50005,0.50005 0 0 0 -0.49219,0.50782 l 0,1.75 a 0.50005,0.50005 0 0 0 0.40234,0.49023 l 5,1 a 0.50005,0.50005 0 0 0 0.59766,-0.49023 l 0,-1.59961 a 0.50005,0.50005 0 1 0 -1,0 l 0,0.99023 -4,-0.80078 0,-1.33984 a 0.50005,0.50005 0 0 0 -0.50781,-0.50782 z" color="#000" font-family="sans-serif" font-weight="400" overflow="visible"/><path style="line-height:normal;text-indent:0;text-align:start;text-decoration-line:none;text-decoration-style:solid;text-decoration-color:#000;text-transform:none;block-progression:tb;isolation:auto;mix-blend-mode:normal" fill="#2b4255" d="M415.5-172.93359a.50005.50005 0 0 0-.5.5l0 3a.50005.50005 0 0 0 .5.5l2 0a.50005.50005 0 0 0 .5-.5l0-3a.50005.50005 0 0 0-.5-.5l-2 0zm.5 1l1 0 0 2-1 0 0-2zM431.5918-174.22656a.50005.50005 0 0 0-.17188.96679c.95223.37644 1.57613 1.29248 1.58008 2.31641.004 1.02393-.6132 1.9424-1.5625 2.32617a.50033152.50033152 0 0 0 .375.92774c1.32565-.53592 2.19301-1.82794 2.1875-3.25782-.006-1.42987-.88314-2.7165-2.21289-3.24218a.50005.50005 0 0 0-.19531-.0371z" color="#000" font-family="sans-serif" font-weight="400" overflow="visible"/><path style="line-height:normal;text-indent:0;text-align:start;text-decoration-line:none;text-decoration-style:solid;text-decoration-color:#000;text-transform:none;block-progression:tb;isolation:auto;mix-blend-mode:normal" fill="#4bbfeb" d="m 431.48438,-176.93359 a 0.50005,0.50005 0 0 0 -0.10547,0.0137 l -14,3.5 A 0.50005,0.50005 0 0 0 417,-172.93359 l 0,4 a 0.50005,0.50005 0 0 0 0.37891,0.48437 l 14,3.5 A 0.50005,0.50005 0 0 0 432,-165.43359 l 0,-11 a 0.50005,0.50005 0 0 0 -0.51562,-0.5 z m -0.48438,1.14062 0,9.71875 -13,-3.25 0,-3.21875 13,-3.25 z" color="#000" font-family="sans-serif" font-weight="400" overflow="visible"/><path style="line-height:normal;text-indent:0;text-align:start;text-decoration-line:none;text-decoration-style:solid;text-decoration-color:#000;text-transform:none;block-progression:tb;isolation:auto;mix-blend-mode:normal" fill="#2b4255" fill-rule="evenodd" d="M436-171.43359l0 1 3 0 0-1-3 0zM434.83789-180.48047l-2.12109 2.12109.70703.70704 2.12305-2.1211-.70899-.70703zM433.42383-164.2168l-.70703.70703 2.12109 2.1211.70899-.70703-2.12305-2.1211zM437.87695-176.24414l-2.78515 1.11719.37304.92968 2.78516-1.11914-.37305-.92773zM435.39062-167.46094l-.39257.91992 2.75781 1.17969.39258-.91992-2.75782-1.17969z" color="#000" font-family="sans-serif" font-weight="400" overflow="visible"/></g></svg>