<svg xmlns="http://www.w3.org/2000/svg" width="64" height="64" fill="none" viewBox="0 0 64 64"><path fill="#000" fill-rule="evenodd" d="M21.1255 20.4079C20.8447 21.1611 20.5613 21.9209 20.26 22.6483 20.0388 23.1824 19.7922 24.0581 19.5035 25.2247 19.3387 25.8905 19.168 26.6174 18.9847 27.3979 18.8488 27.977 18.7059 28.5857 18.5533 29.2209 17.9684 31.6553 17.26 34.3995 16.3512 36.8821 28.7811 36.0651 40.9889 38.1921 46.8314 39.6778 46.5901 34.6531 46.3337 28.0493 46.2986 22.6948 46.2749 19.0757 44.7103 16.0761 42.5794 13.9142 40.4301 11.7336 37.7713 10.4725 35.6814 10.2719 29.5934 9.6878 26.4484 11.3798 24.4845 13.7355 23.4685 14.9543 22.7255 16.4026 22.0771 17.9538 21.7533 18.7285 21.4583 19.5157 21.1628 20.3079 21.1504 20.3412 21.138 20.3745 21.1255 20.4079zM22.9483 12.4549C25.4191 9.49108 29.2687 7.64746 35.8724 8.28109 38.5109 8.53424 41.5872 10.0586 44.0038 12.5103 46.4388 14.9807 48.2709 18.4601 48.2986 22.6817 48.3367 28.4951 48.6382 35.8133 48.8963 40.9498 48.9125 41.2721 48.7722 41.5824 48.5195 41.7831 48.2667 41.9838 47.9327 42.0502 47.6224 41.9614 42.4649 40.4853 28.6411 37.8095 14.9236 38.9963 14.5742 39.0265 14.2344 38.8715 14.0283 38.5877 13.8222 38.3039 13.7798 37.9328 13.9167 37.6099 15.0483 34.9394 15.903 31.6906 16.6086 28.7537 16.7551 28.1437 16.8965 27.5417 17.0326 26.9624 17.2193 26.1673 17.396 25.4151 17.562 24.7442 17.8474 23.5911 18.1254 22.5753 18.4123 21.8829 18.6995 21.1895 18.9715 20.4601 19.2563 19.6965L19.2889 19.609C19.5832 18.82 19.8909 17.9981 20.2318 17.1826 20.9128 15.5533 21.7471 13.8958 22.9483 12.4549zM36.5928 49.5594C36.8009 49.7991 36.8828 50.1234 36.8135 50.4332 36.5287 51.707 35.788 53.5619 34.452 55.0489 33.0881 56.567 31.0692 57.7269 28.3452 57.407 25.6468 57.09 23.8857 55.5612 22.8126 53.8386 21.7578 52.1455 21.3416 50.2355 21.2762 48.965 21.2606 48.6606 21.3846 48.3657 21.613 48.164 21.8415 47.9623 22.1494 47.8757 22.4495 47.9289 23.9752 48.1995 26.4845 48.5897 29.0355 48.878 31.6089 49.1689 34.143 49.346 35.7587 49.218 36.0752 49.193 36.3847 49.3197 36.5928 49.5594zM23.4522 50.1265C23.6366 50.9628 23.9711 51.9158 24.5101 52.7811 25.3341 54.1037 26.6079 55.1891 28.5785 55.4206 30.5235 55.6491 31.9359 54.857 32.9643 53.7123 33.6386 52.9617 34.1322 52.0713 34.4604 51.2599 32.7971 51.2549 30.767 51.0865 28.8109 50.8654 26.8666 50.6456 24.9486 50.3682 23.4522 50.1265z" clip-rule="evenodd"/><path fill="#000" fill-rule="evenodd" d="M31.0212 39.2092C24.8503 38.6171 16.067 38.8277 11.7035 38.9891 10.6932 39.0264 9.8672 39.8091 9.76882 40.8344 9.665 41.9165 10.4105 42.8858 11.4731 43.0592 15.8301 43.7701 24.3156 45.0956 30.4004 45.6794 36.4852 46.2633 45.0679 46.5754 49.4806 46.706 50.5568 46.7379 51.473 45.9279 51.5768 44.8459 51.6752 43.8206 51.0131 42.8951 50.0283 42.6663 45.7752 41.6782 37.1921 39.8013 31.0212 39.2092zM11.6296 36.9904C15.9871 36.8292 24.893 36.612 31.2122 37.2183 37.5315 37.8246 46.2335 39.7314 50.4809 40.7182 52.4606 41.1782 53.76 43.0328 53.5677 45.0369 53.3642 47.1572 51.5607 48.7684 49.4214 48.7051 45.011 48.5746 36.3677 48.2612 30.2094 47.6703 24.051 47.0794 15.5059 45.7436 11.1511 45.0331 9.03874 44.6885 7.57452 42.7637 7.77797 40.6434 7.97026 38.6393 9.59862 37.0656 11.6296 36.9904zM33.5277 6.65865C33.1745 6.93545 33.0701 7.28576 33.0617 7.46131 33.0351 8.01296 32.5664 8.43864 32.0148 8.4121 31.4631 8.38556 31.0375 7.91685 31.064 7.3652 31.0976 6.66578 31.4409 5.75306 32.294 5.0845 33.1633 4.40317 34.4376 4.06924 36.162 4.29102 37.9697 4.5235 39.077 5.36332 39.5448 6.5305 39.9741 7.60167 39.7691 8.72292 39.4893 9.41583 39.2826 9.92795 38.6998 10.1755 38.1877 9.96874 37.6756 9.76199 37.428 9.17922 37.6348 8.6671 37.7943 8.27198 37.8636 7.71173 37.6884 7.27452 37.5516 6.9333 37.1755 6.43784 35.9069 6.27468 34.5551 6.10083 33.8646 6.39462 33.5277 6.65865zM17.7564 10.7549C18.0339 11.2324 17.8717 11.8444 17.3942 12.1219 15.2024 13.3954 10.2971 18.8173 10.6006 29.808 10.6158 30.3601 10.1806 30.82 9.62855 30.8353 9.07648 30.8505 8.61658 30.4153 8.60133 29.8632 8.28121 18.2687 13.4608 12.0942 16.3894 10.3926 16.8669 10.1152 17.479 10.2773 17.7564 10.7549zM51.0348 14.3017C51.2871 13.8104 51.8899 13.6166 52.3812 13.8689 54.9993 15.2134 58.4642 20.6185 56.1806 31.6871 56.069 32.228 55.54 32.576 54.9991 32.4644 54.4582 32.3528 54.1102 31.8239 54.2218 31.283 56.4285 20.5875 52.9049 16.3862 51.4675 15.648 50.9762 15.3957 50.7825 14.793 51.0348 14.3017z" clip-rule="evenodd"/></svg>