<svg xmlns="http://www.w3.org/2000/svg" width="32" height="32" viewBox="0 0 32 32"><path style="line-height:normal;text-indent:0;text-align:start;text-decoration-line:none;text-decoration-style:solid;text-decoration-color:#000;text-transform:none;block-progression:tb;white-space:normal;isolation:auto;mix-blend-mode:normal;solid-color:#000;solid-opacity:1" d="M 9.8925781 3 A 0.50005 0.50005 0 0 0 9.9433594 4 C 11.199551 4 12.354432 4.6448038 13.025391 5.6894531 C 11.312857 6.5840551 10.138672 8.3726774 10.138672 10.431641 C 10.139772 10.833741 10.188102 11.232094 10.279297 11.621094 A 0.50005 0.50005 0 0 0 10.279297 11.623047 C 9.5446109 12.133276 8.8886022 12.747771 8.3320312 13.445312 C 7.0745875 12.442106 6.0315374 11.196578 5.2910156 9.7675781 A 0.50005 0.50005 0 0 0 4.8457031 9.4921875 A 0.50005 0.50005 0 0 0 4.4023438 10.228516 C 5.2165458 11.799692 6.3661431 13.167202 7.7539062 14.263672 C 6.9460171 15.540463 6.4504587 17.029112 6.3632812 18.626953 L 3.5078125 18.626953 A 0.50005 0.50005 0 1 0 3.5078125 19.626953 L 6.3632812 19.626953 C 6.4709716 21.600345 7.1996875 23.407225 8.3691406 24.853516 C 6.7027179 26.010139 5.3370533 27.549832 4.4023438 29.353516 A 0.50005 0.50005 0 0 0 4.8457031 30.089844 A 0.50005 0.50005 0 0 0 5.2910156 29.814453 C 6.1698663 28.118566 7.4612031 26.675015 9.0410156 25.603516 C 10.698553 27.24858 12.981853 28.267578 15.5 28.267578 C 18.018147 28.267578 20.301447 27.24858 21.958984 25.603516 C 23.558357 26.68821 24.86298 28.154105 25.742188 29.876953 A 0.50005 0.50005 0 0 0 26.169922 30.15625 A 0.50005 0.50005 0 0 0 26.632812 29.423828 C 25.697316 27.590732 24.318516 26.02504 22.630859 24.853516 C 23.800312 23.407225 24.529029 21.600345 24.636719 19.626953 L 27.492188 19.626953 A 0.50005 0.50005 0 1 0 27.492188 18.626953 L 24.636719 18.626953 C 24.54949 17.028166 24.052873 15.539014 23.244141 14.261719 C 24.651818 13.14943 25.816455 11.759799 26.632812 10.160156 A 0.50005 0.50005 0 0 0 26.169922 9.4257812 A 0.50005 0.50005 0 0 0 25.742188 9.7050781 C 24.999505 11.160392 23.941962 12.425441 22.666016 13.443359 C 22.109809 12.7467 21.454638 12.132755 20.720703 11.623047 A 0.50005 0.50005 0 0 0 20.720703 11.621094 C 20.812063 11.231294 20.859187 10.831941 20.861328 10.431641 C 20.861328 8.3726774 19.687143 6.5840551 17.974609 5.6894531 C 18.645568 4.6448038 19.800448 4 21.056641 4 A 0.50005 0.50005 0 1 0 21.056641 3 C 19.398692 3 17.872833 3.8849793 17.037109 5.3066406 C 16.549571 5.1605044 16.034392 5.0800781 15.5 5.0800781 C 14.965608 5.0800781 14.450429 5.1605044 13.962891 5.3066406 C 13.127167 3.8849793 11.601308 3 9.9433594 3 A 0.50005 0.50005 0 0 0 9.8925781 3 z M 15.5 6.078125 C 17.915429 6.078125 19.861328 8.0209875 19.861328 10.429688 C 19.860084 10.642295 19.838647 10.852992 19.806641 11.0625 C 18.521647 10.376849 17.056774 9.9863281 15.5 9.9863281 C 13.943226 9.9863281 12.478353 10.376849 11.193359 11.0625 C 11.161007 10.851773 11.139257 10.640128 11.138672 10.427734 C 11.139772 8.0199344 13.085239 6.078125 15.5 6.078125 z M 13.25 8 A 0.5 0.5 0 0 0 12.75 8.5 A 0.5 0.5 0 0 0 13.25 9 A 0.5 0.5 0 0 0 13.75 8.5 A 0.5 0.5 0 0 0 13.25 8 z M 18.25 8 A 0.5 0.5 0 0 0 17.75 8.5 A 0.5 0.5 0 0 0 18.25 9 A 0.5 0.5 0 0 0 18.75 8.5 A 0.5 0.5 0 0 0 18.25 8 z M 15 11.011719 L 15 27.242188 C 10.720745 26.983986 7.3379006 23.459697 7.3378906 19.126953 C 7.3378503 14.794133 10.720739 11.269942 15 11.011719 z M 16 11.011719 C 20.27926 11.269942 23.66215 14.794133 23.662109 19.126953 C 23.6621 23.459697 20.279254 26.983986 16 27.242188 L 16 11.011719 z M 10.441406 15 A 0.50005 0.50005 0 0 0 10.492188 16 L 13.492188 16 A 0.50005 0.50005 0 1 0 13.492188 15 L 10.492188 15 A 0.50005 0.50005 0 0 0 10.441406 15 z M 17.457031 15 A 0.50005 0.50005 0 0 0 17.507812 16 L 20.507812 16 A 0.50005 0.50005 0 1 0 20.507812 15 L 17.507812 15 A 0.50005 0.50005 0 0 0 17.457031 15 z M 11.441406 17 A 0.50005 0.50005 0 0 0 11.492188 18 L 13.492188 18 A 0.50005 0.50005 0 1 0 13.492188 17 L 11.492188 17 A 0.50005 0.50005 0 0 0 11.441406 17 z M 17.457031 17 A 0.50005 0.50005 0 0 0 17.507812 18 L 19.507812 18 A 0.50005 0.50005 0 1 0 19.507812 17 L 17.507812 17 A 0.50005 0.50005 0 0 0 17.457031 17 z M 12.441406 19 A 0.50005 0.50005 0 0 0 12.492188 20 L 13.492188 20 A 0.50005 0.50005 0 1 0 13.492188 19 L 12.492188 19 A 0.50005 0.50005 0 0 0 12.441406 19 z M 17.457031 19 A 0.50005 0.50005 0 0 0 17.507812 20 L 18.507812 20 A 0.50005 0.50005 0 1 0 18.507812 19 L 17.507812 19 A 0.50005 0.50005 0 0 0 17.457031 19 z " color="#000" enable-background="accumulate" font-family="sans-serif" font-weight="400" overflow="visible"/></svg>