<svg xmlns="http://www.w3.org/2000/svg" width="64" height="64" viewBox="0 0 64 64"><path style="line-height:normal;text-indent:0;text-align:start;text-decoration-line:none;text-decoration-style:solid;text-decoration-color:#000;text-transform:none;block-progression:tb;white-space:normal;isolation:auto;mix-blend-mode:normal;solid-color:#000;solid-opacity:1" d="m -159.99153,993.036 c -0.56281,0 -1.12716,0.21268 -1.55468,0.63867 l -15.00196,14.94923 c -0.85506,0.852 -0.85506,2.2476 0,3.0996 0.85504,0.8519 2.25043,0.8519 3.10547,0 l 2.45117,-2.4414 0,8.4531 -15.80664,7.9824 c -1.07747,0.5441 -1.51279,1.8718 -0.96484,2.9473 a 0.50005,0.50005 0 0 0 0.002,0 c 0.54798,1.0751 1.87366,1.5088 2.95118,0.9648 l 0.81054,-0.4101 0,17.6426 a 0.50005,0.50005 0 0 0 0.5,0.5 l 13,0 a 0.50004994,0.50004994 0 0 0 0.008,0 l 4.1211,0 12.75586,0 4.12304,0 13,0 a 0.50005,0.50005 0 0 0 0.5,-0.5 l 0,-17.6407 0.8086,0.4082 c 1.07752,0.544 2.40515,0.1103 2.95312,-0.9648 0.54795,-1.0755 0.11459,-2.4032 -0.96289,-2.9473 l -15.79883,-7.9765 0,-8.4571 2.44922,2.4395 c 0.85504,0.8519 2.25045,0.8519 3.10547,0 0.85508,-0.852 0.85508,-2.2476 0,-3.0996 l -15.00195,-14.94923 c -0.42751,-0.42599 -0.98991,-0.63868 -1.55274,-0.63867 z m 0,0.99219 c 0.30496,0 0.60829,0.1189 0.84571,0.35546 l 15.0039,14.94925 c 0.47481,0.4731 0.47481,1.2106 0,1.6836 -0.47481,0.4731 -1.22047,0.4731 -1.69531,0 l -13.80273,-13.75394 a 0.50005,0.50005 0 0 0 -0.70508,0 l -13.80274,13.75394 c -0.47484,0.4731 -1.22047,0.4731 -1.69531,0 -0.47479,-0.473 -0.47479,-1.2105 0,-1.6836 l 15.00391,-14.94925 c 0.23742,-0.23657 0.54271,-0.35546 0.84765,-0.35546 z m 0,4.29492 10,9.96289 0,38.0762 -3,0 0,-15.4043 c 0,-0.201 -0.11255,-0.3728 -0.23242,-0.4649 -0.11987,-0.092 -0.25348,-0.1308 -0.39062,-0.1308 l -12.75586,0 c -0.13714,0 -0.27075,0.039 -0.39063,0.1308 -0.11987,0.092 -0.23047,0.2639 -0.23047,0.4649 l 0,15.4043 -3,0 0,-38.0762 10,-9.96289 z m 0,7.03909 c -3.86007,0 -7.00001,3.14 -7,7 -10e-6,3.8601 3.13993,7 7,7 3.86008,0 7.00003,-3.1399 7,-7 3e-5,-3.86 -3.13992,-7 -7,-7 z m 0,1 c 3.31963,0 6.00002,2.6804 6,6 2e-5,3.3197 -2.68037,6 -6,6 -3.31961,0 -6.00001,-2.6803 -6,-6 -10e-6,-3.3196 2.68039,-6 6,-6 z m -0.008,2.0351 a 0.50005,0.50005 0 0 0 -0.49219,0.5059 l 0,2.6133 c -0.29246,0.1758 -0.5,0.4843 -0.5,0.8457 0,0.5464 0.45365,1 1,1 0.36102,0 0.66783,-0.208 0.84375,-0.5 l 1.81446,0 a 0.50005,0.50005 0 1 0 0,-1 l -1.81446,0 c -0.0858,-0.1426 -0.20112,-0.26 -0.34375,-0.3457 l 0,-2.6133 a 0.50005,0.50005 0 0 0 -0.50781,-0.5059 z m -10.99219,10.459 0,2.6758 -14.26953,7.2051 c -0.59826,0.3021 -1.30513,0.07 -1.60937,-0.5274 -0.30431,-0.5973 -0.0749,-1.2975 0.52344,-1.5996 l 15.35546,-7.7539 z m 22,0 15.34766,7.75 c 0.59836,0.3021 0.82774,1.0023 0.52344,1.5996 -0.30425,0.5969 -1.01307,0.8295 -1.61133,0.5274 l -14.25977,-7.2012 0,-2.6758 z m -22,3.793 0,23.709 -12.00781,0 0,-17.6465 12.00781,-6.0625 z m 22,0 12,6.0586 0,17.6465 -12,0 0,-23.7051 z m -31.43554,7.7051 c -0.11414,0 -0.22584,0.029 -0.33594,0.1074 -0.1101,0.078 -0.22852,0.2379 -0.22852,0.4394 l 0,3.4532 0,1 0,3.4531 c 0,0.2014 0.11842,0.3628 0.22852,0.4414 0.1101,0.078 0.2218,0.1055 0.33594,0.1055 l 6.86914,0 c 0.11414,0 0.22584,-0.027 0.33594,-0.1055 0.11011,-0.079 0.23046,-0.24 0.23046,-0.4414 l 0,-7.9063 c 0,-0.2015 -0.12035,-0.3609 -0.23046,-0.4394 -0.1101,-0.079 -0.2218,-0.1074 -0.33594,-0.1074 l -6.86914,0 z m 34,0 c -0.11414,0 -0.22584,0.029 -0.33594,0.1074 -0.1101,0.078 -0.22852,0.2379 -0.22852,0.4394 l 0,3.4532 0,1 0,3.4531 c 0,0.2014 0.11842,0.3628 0.22852,0.4414 0.1101,0.078 0.2218,0.1055 0.33594,0.1055 l 6.86914,0 c 0.11414,0 0.22584,-0.027 0.33594,-0.1055 0.11011,-0.079 0.23046,-0.24 0.23046,-0.4414 l 0,-7.9063 c 0,-0.2015 -0.12035,-0.3609 -0.23046,-0.4394 -0.1101,-0.079 -0.2218,-0.1074 -0.33594,-0.1074 l -6.86914,0 z m -33.56446,1 2.5,0 0,3 -2.5,0 0,-3 z m 3.5,0 2.5,0 0,3 -2.5,0 0,-3 z m 10.5,0 5.5,0 0,15 -5.5,0 0,-15 z m 6.5,0 5.5,0 0,15 -5.5,0 0,-15 z m 13.5,0 2.5,0 0,3 -2.5,0 0,-3 z m 3.5,0 2.5,0 0,3 -2.5,0 0,-3 z m -37.5,4 2.5,0 0,3 -2.5,0 0,-3 z m 3.5,0 2.5,0 0,3 -2.5,0 0,-3 z m 30.5,0 2.5,0 0,3 -2.5,0 0,-3 z m 3.5,0 2.5,0 0,3 -2.5,0 0,-3 z m -20.00781,1 a 0.50005,0.50005 0 0 0 -0.49219,0.5058 l 0,1.9883 a 0.50005,0.50005 0 1 0 1,0 l 0,-1.9883 a 0.50005,0.50005 0 0 0 -0.50781,-0.5058 z m 5,0 a 0.50005,0.50005 0 0 0 -0.49219,0.5058 l 0,1.9883 a 0.50005,0.50005 0 1 0 1,0 l 0,-1.9883 a 0.50005,0.50005 0 0 0 -0.50781,-0.5058 z" color="#000" enable-background="accumulate" font-family="sans-serif" font-weight="400" overflow="visible" transform="translate(192 -988.362)"/></svg>