<svg xmlns="http://www.w3.org/2000/svg" viewBox="0 0 25 25"><g data-name="Icon 1"><path fill="#d46484" d="M10 8H5V3h5zM6 7H9V4H6zM10 15H5V10h5zM6 14H9V11H6zM10 22H5V17h5zM6 21H9V18H6z"/><rect width="11" height="1" x="12" y="5" fill="#392164"/><rect width="11" height="1" x="12" y="12" fill="#392164"/><rect width="11" height="1" x="12" y="19" fill="#392164"/><polygon fill="#d46484" points="7.5 7.21 5.15 4.85 5.85 4.15 7.5 5.79 11.15 2.15 11.85 2.85 7.5 7.21"/><polygon fill="#d46484" points="7.5 14.21 5.15 11.85 5.85 11.15 7.5 12.79 11.15 9.15 11.85 9.85 7.5 14.21"/><polygon fill="#d46484" points="7.5 21.21 5.15 18.85 5.85 18.15 7.5 19.79 11.15 16.15 11.85 16.85 7.5 21.21"/></g></svg>