<svg xmlns="http://www.w3.org/2000/svg" width="48" height="48" viewBox="0 0 48 48"><g transform="translate(0 -1004.362)"><circle cx="24" cy="1028.362" r="24" fill="#239fdb" fill-rule="evenodd"/><path fill="#0b5ecd" style="line-height:normal;text-indent:0;text-align:start;text-decoration-line:none;text-decoration-style:solid;text-decoration-color:#000;text-transform:none;block-progression:tb;isolation:auto;mix-blend-mode:normal" d="M 30.730469 47.021484 A 23.999998 23.999998 0 0 0 32.697266 46.369141 A 23.999998 23.999998 0 0 0 34.886719 45.388672 A 23.999998 23.999998 0 0 0 36.966797 44.195312 A 23.999998 23.999998 0 0 0 38.917969 42.800781 A 23.999998 23.999998 0 0 0 40.720703 41.216797 A 23.999998 23.999998 0 0 0 42.355469 39.460938 A 23.999998 23.999998 0 0 0 43.808594 37.550781 A 23.999998 23.999998 0 0 0 45.0625 35.505859 A 23.999998 23.999998 0 0 0 46.105469 33.345703 A 23.999998 23.999998 0 0 0 46.927734 31.091797 A 23.999998 23.999998 0 0 0 46.966797 30.941406 L 33.466797 17.441406 C 33.194592 17.169206 32.819372 17 32.408203 17 C 31.79144 17 31.25648 17.380458 31.027344 17.917969 C 30.989154 18.007554 30.959589 18.101991 30.939453 18.199219 C 30.919318 18.296446 30.908203 18.397212 30.908203 18.5 L 30.908203 23.496094 L 26.75 19.337891 C 26.72912 19.316964 26.699508 19.303965 26.673828 19.287109 C 26.654743 19.274638 26.638944 19.259864 26.617188 19.25 C 26.556216 19.222208 26.486695 19.20357 26.404297 19.201172 L 13.453125 18.201172 C 13.437506 18.200404 13.421871 18.200465 13.40625 18.201172 L 13.404297 18.201172 L 13.404297 18.199219 C 13.329838 18.201484 13.266442 18.21942 13.208984 18.244141 C 13.197808 18.248931 13.188265 18.25426 13.177734 18.259766 C 13.142215 18.278342 13.114081 18.302484 13.085938 18.328125 C 13.024769 18.383602 12.975371 18.449 12.949219 18.525391 C 12.945694 18.535657 12.946246 18.546169 12.943359 18.556641 C 12.922712 18.631458 12.921453 18.708438 12.933594 18.785156 C 12.935629 18.798041 12.934533 18.809574 12.9375 18.822266 C 12.956132 18.902989 12.994226 18.976626 13.050781 19.039062 C 13.055797 19.044602 13.05523 19.053277 13.060547 19.058594 L 13.908203 19.90625 L 13.908203 23.699219 C 13.908217 23.837319 13.964202 23.962234 14.054688 24.052734 L 15.908203 25.90625 L 15.908203 32.199219 L 30.730469 47.021484 z " color="#000" font-family="sans-serif" font-weight="400" transform="translate(0 1004.362)"/><path fill="#fff" style="line-height:normal;text-indent:0;text-align:start;text-decoration-line:none;text-decoration-style:solid;text-decoration-color:#000;text-transform:none;block-progression:tb;isolation:auto;mix-blend-mode:normal" d="m 24.408895,1029.7626 c -0.822351,0 -1.5,0.6777 -1.5,1.5 l 0,5 c 0,0.6467 0.421006,1.1977 1,1.4062 l 0,0.293 -5.492188,0 c -0.676161,-0.01 -0.676161,1.0096 0,1 l 0.492188,0 0,6 1,0 0,-6 4,0 0,6 1,0 0,-6 0.583984,0 c 0.676161,0.01 0.676161,-1.0096 0,-1 l -0.583984,0 0,-0.293 c 0.578994,-0.2085 1,-0.7595 1,-1.4062 l 0,-5 c 0,-0.8223 -0.677649,-1.5 -1.5,-1.5 z m 0,1 c 0.285649,0 0.5,0.2144 0.5,0.5 l 0,5 c 0,0.2857 -0.214351,0.5 -0.5,0.5 -0.285649,0 -0.5,-0.2143 -0.5,-0.5 l 0,-5 c 0,-0.2856 0.214351,-0.5 0.5,-0.5 z m -19.0039064,0.1992 c -0.6288821,0.019 -0.6542302,0.9444 -0.027344,0.998 l 0.53125,0.041 0,4.4609 c 2.76e-5,0.2761 0.2238691,0.5 0.5,0.5 l 1.5000001,0 0,8 1,0 0,-8 6.0000003,0 0,8 1,0 0,-8 1.5,0 c 0.276131,0 0.499972,-0.2239 0.5,-0.5 l 0,-3.5352 0.419922,0.033 c 0.693439,0.086 0.774603,-0.9755 0.07617,-0.996 l -12.9511724,-1 c -0.016266,-8e-4 -0.032562,-8e-4 -0.048828,0 z m 1.5039062,1.1172 10.0000002,0.7715 0,3.1113 -10.0000002,0 z" color="#000" font-family="sans-serif" font-weight="400" overflow="visible" transform="translate(8 -8.4)"/></g></svg>