<svg xmlns="http://www.w3.org/2000/svg" enable-background="new 0 0 512 512" viewBox="0 0 512 512"><path d="M302.1 80.2c-.2 19.2-12.2 37.2-30.7 43.5-18.4 6.3-38.7.7-51.2-14.2-12.4-14.9-13.7-36.6-3.8-53.1C226.4 40 246.2 31 265 34.9 286.5 39.4 301.8 58.3 302.1 80.2c.1 9.6 15.1 9.7 15 0-.3-25.7-16.3-48.5-40.4-57.5-23.6-8.7-51.4-1.1-67.4 18.1-16.5 19.8-19.1 48.5-5.7 70.7 13.2 22 39 33.1 64.1 28.6 28.7-5.2 49.1-31.3 49.5-60C317.2 70.5 302.2 70.5 302.1 80.2zM161.7 206c20-19.5 44.9-33.3 72.6-38.1 25.9-4.5 53.2-.4 76.9 10.9 14.5 6.9 27.6 16.2 39.1 27.3 7 6.7 17.6-3.9 10.6-10.6-21.9-21.1-49.4-36.5-79.5-41.9-29.5-5.3-59.6-1.3-86.7 11.3-16.2 7.5-30.8 18.2-43.6 30.6C144.2 202.1 154.8 212.7 161.7 206L161.7 206zM71.8 316.5c0-18.5 0-37 0-55.5 0-6-1.6-14.8 1-20.5 3.2-7.2 11.5-9.3 18.6-9.3 28.9-.1 57.9 0 86.8 0 48.4 0 96.9 0 145.3 0 33.1 0 66.2 0 99.3 0 1.8 0 3.6 0 5.4 0 6.8.1 14.5 3 17.3 9.8 1 2.4.8 5 .8 7.6 0 20.8 0 41.6 0 62.4 0 1.9 0 3.7 0 5.6 0 9.7 15 9.7 15 0 0-19.2 0-38.4 0-57.6 0-8.2 1-17.2-2.5-24.9-5.5-11.9-18.6-17.8-31.2-17.9-28.3-.2-56.7 0-85 0-50 0-99.9 0-149.9 0-33 0-66.1 0-99.1 0-4.8 0-9.7.1-14.4 1.5-13.8 4.1-22.5 15.5-22.5 29.8 0 21.1 0 42.1 0 63.2 0 2 0 3.9 0 5.9C56.8 326.2 71.8 326.2 71.8 316.5L71.8 316.5zM119.6 388.1c-.2 12.5-7.8 23.9-19.6 28.3-12.1 4.5-25.9.7-34-9.3-17.2-21.2 2-53.7 28.9-48.6C109.2 361.2 119.3 373.6 119.6 388.1c.2 9.6 15.2 9.7 15 0-.3-19.1-12-35.9-30-42.5-17.6-6.5-38.3-.6-50 14C42.8 374 41 394.7 50.5 410.9c9.7 16.6 29 24.9 47.7 21.5 21.2-3.9 36-23.2 36.4-44.3C134.7 378.5 119.7 378.5 119.6 388.1zM24.8 478c17.5-17 40.4-27.6 65-27.3 24.2.2 46.9 10.7 64.2 27.3 7 6.7 17.6-3.9 10.6-10.6-20.2-19.3-46.7-31.5-74.8-31.7-28.5-.2-55.3 12-75.6 31.7C7.3 474.1 17.9 484.7 24.8 478L24.8 478zM286.1 388.1c-.2 12.5-7.8 23.9-19.6 28.3-12.1 4.5-25.9.7-34-9.3-17.2-21.2 2-53.7 28.9-48.6C275.8 361.2 285.9 373.6 286.1 388.1c.2 9.6 15.2 9.7 15 0-.3-19.1-12-35.9-30-42.5-17.6-6.5-38.3-.6-50 14-11.7 14.5-13.5 35.2-4.1 51.3 9.7 16.6 29 24.9 47.7 21.5 21.2-3.9 36-23.2 36.4-44.3C301.3 378.5 286.3 378.5 286.1 388.1zM191.4 478c17.5-17 40.4-27.6 65-27.3 24.2.2 46.9 10.7 64.2 27.3 7 6.7 17.6-3.9 10.6-10.6-20.2-19.3-46.7-31.5-74.8-31.7-28.5-.2-55.3 12-75.6 31.7C173.8 474.1 184.4 484.7 191.4 478L191.4 478zM452.7 388.1c-.2 12.5-7.8 23.9-19.6 28.3-12.1 4.5-25.9.7-34-9.3-17.2-21.2 2-53.7 28.9-48.6C442.4 361.2 452.4 373.6 452.7 388.1c.2 9.6 15.2 9.7 15 0-.3-19.1-12-35.9-30-42.5-17.6-6.5-38.3-.6-50 14-11.7 14.5-13.5 35.2-4.1 51.3 9.7 16.6 29 24.9 47.7 21.5 21.2-3.9 36-23.2 36.4-44.3C467.9 378.5 452.9 378.5 452.7 388.1zM357.9 478c17.5-17 40.4-27.6 65-27.3 24.2.2 46.9 10.7 64.2 27.3 7 6.7 17.6-3.9 10.6-10.6-20.2-19.3-46.7-31.5-74.8-31.7-28.5-.2-55.3 12-75.6 31.7C340.4 474.1 351 484.7 357.9 478L357.9 478z"/></svg>