<svg xmlns="http://www.w3.org/2000/svg" width="48" height="48" data-name="Layer 1" viewBox="0 0 48 48"><path d="M33.79 17.71H32.58v-7a.9.9 0 1 0-1.8 0v7h-1a3.37 3.37 0 0 0-3.36 3.36v9.24a3.36 3.36 0 0 0 3.36 3.36h1v4a.9.9 0 1 0 1.8 0v-4h1.21a3.35 3.35 0 0 0 3.36-3.36V21.07A3.36 3.36 0 0 0 33.79 17.71zm1.57 12.6a1.57 1.57 0 0 1-1.57 1.57h-4a1.57 1.57 0 0 1-1.57-1.57V21.07a1.57 1.57 0 0 1 1.57-1.57h4a1.57 1.57 0 0 1 1.57 1.57zM18.63 14.68h-1v-4a.9.9 0 1 0-1.79 0v4H14.62A3.36 3.36 0 0 0 11.26 18v9.24a3.36 3.36 0 0 0 3.36 3.36h1.21v7a.9.9 0 1 0 1.79 0v-7h1A3.37 3.37 0 0 0 22 27.28V18A3.37 3.37 0 0 0 18.63 14.68zm1.57 12.6a1.57 1.57 0 0 1-1.57 1.57h-4a1.57 1.57 0 0 1-1.57-1.57V18a1.57 1.57 0 0 1 1.57-1.57h4A1.57 1.57 0 0 1 20.2 18z"/></svg>