<svg xmlns="http://www.w3.org/2000/svg" xmlns:xlink="http://www.w3.org/1999/xlink" width="25" height="25" viewBox="0 0 25 25"><defs><linearGradient id="a"><stop offset="0" stop-color="#ff1679"/><stop offset="1" stop-color="#ff770b"/></linearGradient><linearGradient id="b" x1="992.183" x2="1019.298" y1="516.081" y2="545.959" gradientTransform="translate(-797.575 618.831) scale(.80097)" gradientUnits="userSpaceOnUse" xlink:href="#a"/></defs><g fill="#fff" transform="translate(4.5 -1031.862)"><rect width="25" height="25" x="-4.5" y="1031.862" fill="url(#b)" rx="5.283" ry="5.283"/><path fill-rule="evenodd" style="text-indent:0;text-align:start;line-height:normal;text-transform:none;block-progression:tb" d="M 12.5 5.125 L 6.46875 7.21875 L 6 7.375 L 6 17.65625 L 6 17.6875 L 6.46875 17.84375 L 12.15625 19.875 L 18.53125 17.75 L 19 17.59375 L 19 16.46875 L 19 16.4375 L 19 7.5 L 19 7.46875 L 18.53125 7.3125 L 12.5 5.125 z M 12 6.34375 L 12 14.3125 L 7 16 L 7 8.09375 L 12 6.34375 z M 13 6.375 L 18 8.1875 L 18 16.09375 L 13 14.3125 L 13 6.375 z M 12.5 15.21875 L 17.59375 17 L 12.15625 18.8125 L 7.09375 17.03125 L 12.5 15.21875 z " color="#000" font-family="sans-serif" font-weight="400" overflow="visible" transform="translate(-4.5 1031.862)"/></g></svg>