<svg xmlns="http://www.w3.org/2000/svg" width="512" height="512" fill="none" viewBox="0 0 512 512"><path fill="#598BD7" d="M64 44C64 35.1634 71.1634 28 80 28H432C440.837 28 448 35.1634 448 44V468C448 476.837 440.837 484 432 484H80C71.1635 484 64 476.837 64 468V44Z"/><path fill="#73CDFF" d="M64 44C64 35.1634 71.1634 28 80 28H424V444C424 452.837 416.837 460 408 460H64V44Z"/><path fill="#fff" d="M408 132C408 167.346 379.346 196 344 196C308.654 196 280 167.346 280 132C280 96.6538 308.654 68 344 68C379.346 68 408 96.6538 408 132Z"/><path fill="#454545" fill-rule="evenodd" d="M344 84C347.03 84 349.8 85.712 351.155 88.4223L383.155 152.422C385.131 156.374 383.53 161.18 379.578 163.155C375.626 165.131 370.821 163.53 368.845 159.578L344 109.889L319.155 159.578C317.18 163.53 312.374 165.131 308.422 163.155C304.471 161.18 302.869 156.374 304.845 152.422L336.845 88.4223C338.2 85.712 340.97 84 344 84Z" clip-rule="evenodd"/><path fill="#454545" fill-rule="evenodd" d="M364 148H324V132H364V148zM104 92C104 87.5817 107.582 84 112 84H232C236.418 84 240 87.5817 240 92 240 96.4183 236.418 100 232 100H112C107.582 100 104 96.4183 104 92zM104 148C104 143.582 107.582 140 112 140H232C236.418 140 240 143.582 240 148 240 152.418 236.418 156 232 156H112C107.582 156 104 152.418 104 148zM104 204C104 199.582 107.582 196 112 196H232C236.418 196 240 199.582 240 204 240 208.418 236.418 212 232 212H112C107.582 212 104 208.418 104 204zM232 260C232 255.582 235.582 252 240 252L400 252C404.418 252 408 255.582 408 260 408 264.418 404.418 268 400 268L240 268C235.582 268 232 264.418 232 260zM248 316C248 311.582 251.582 308 256 308L384 308C388.418 308 392 311.582 392 316 392 320.418 388.418 324 384 324L256 324C251.582 324 248 320.418 248 316zM232 372C232 367.582 235.582 364 240 364L400 364C404.418 364 408 367.582 408 372 408 376.418 404.418 380 400 380L240 380C235.582 380 232 376.418 232 372zM248 428C248 423.582 251.582 420 256 420L384 420C388.418 420 392 423.582 392 428 392 432.418 388.418 436 384 436L256 436C251.582 436 248 432.418 248 428zM196.24 245.217C199.987 247.559 201.126 252.494 198.784 256.241L158.784 320.241C157.492 322.308 155.328 323.674 152.905 323.95 150.483 324.226 148.067 323.382 146.343 321.658L114.343 289.658C111.219 286.534 111.219 281.468 114.343 278.344 117.467 275.22 122.533 275.22 125.657 278.344L150.546 303.233 185.216 247.761C187.558 244.014 192.493 242.875 196.24 245.217zM196.24 357.217C199.987 359.559 201.126 364.494 198.784 368.241L158.784 432.241C157.492 434.308 155.328 435.674 152.905 435.95 150.483 436.226 148.067 435.382 146.343 433.658L114.343 401.658C111.219 398.534 111.219 393.468 114.343 390.344 117.467 387.22 122.533 387.22 125.657 390.344L150.546 415.233 185.216 359.761C187.558 356.014 192.493 354.875 196.24 357.217z" clip-rule="evenodd"/></svg>