<svg xmlns="http://www.w3.org/2000/svg" width="32" height="32" viewBox="0 0 32 32"><path fill="#f55" d="m -746.8622,1102.1106 c -1.8863,-1.0891 -3.98035,-1.4956 -5.92971,-1.042 -1.94936,0.4536 -3.73075,1.7744 -4.9985,3.9702 -1.3305,2.3045 -0.94646,5.3816 0.0347,8.7524 0.98113,3.3708 2.6071,7.0764 3.94853,10.7234 0.0819,0.2096 0.31882,0.3465 0.54127,0.3125 3.82775,-0.6615 7.84783,-1.1168 11.26103,-1.9421 3.41321,-0.8254 6.27984,-2.002 7.62424,-4.3306 1.28185,-2.2202 1.49832,-4.4198 0.91194,-6.3295 -0.58638,-1.9098 -1.95591,-3.5109 -3.84014,-4.5987 -1.93857,-1.1193 -4.28261,-0.842 -6.21206,-0.3029 -0.49704,-1.9302 -1.40704,-4.096 -3.34128,-5.2127 z" color="#000" font-family="Sans" font-weight="400" overflow="visible" transform="rotate(-30 -2415.165 -860.686)" style="line-height:normal;-inkscape-font-specification:Sans;text-indent:0;text-align:start;text-decoration-line:none;text-transform:none;block-progression:tb;marker:none"/></svg>