<svg xmlns="http://www.w3.org/2000/svg" width="26" height="26" viewBox="0 0 26 26"><g fill="#fff" transform="translate(5 -1031.362)"><circle cx="8" cy="1044.362" r="13" fill="#ffa40b" fill-rule="evenodd"/><path d="M25.605469 16.115234A12.999996 12.999996 0 0 0 25.740234 15.582031 12.999996 12.999996 0 0 0 25.837891 14.935547L18.302734 7.3984375 18.300781 7.3984375 17.595703 6.6933594 16.888672 7.3984375 17.595703 8.1054688 25.605469 16.115234zM15.722656 25.695312A12.999996 12.999996 0 0 0 16.476562 25.525391 12.999996 12.999996 0 0 0 17.710938 25.117188 12.999996 12.999996 0 0 0 18.896484 24.585938 12.999996 12.999996 0 0 0 20.023438 23.939453 12.999996 12.999996 0 0 0 21.080078 23.183594 12.999996 12.999996 0 0 0 22.056641 22.326172 12.999996 12.999996 0 0 0 22.943359 21.375 12.999996 12.999996 0 0 0 23.728516 20.339844 12.999996 12.999996 0 0 0 24.408203 19.232422 12.999996 12.999996 0 0 0 24.974609 18.0625 12.999996 12.999996 0 0 0 25.419922 16.841797 12.999996 12.999996 0 0 0 25.505859 16.501953L20 10.996094 19.5 10.996094 13.5 4.9960938 12.5 4.9960938 12.5 5.9960938 13.523438 7.0195312C13.35998 7.0042634 13.194758 6.9960938 13.027344 6.9960938 12.002744 6.9960938 11.045533 7.2881371 10.248047 7.7910156 10.097377 7.886025 9.9666875 8.0057754 9.828125 8.1152344L9.1113281 7.3984375 9.109375 7.3984375 8.4042969 6.6933594 7.6972656 7.3984375 8.4042969 8.1054688 9.109375 8.8105469C8.4477918 9.6025112 8.0351564 10.587445 8.0351562 11.675781 8.0351562 11.806337 8.0479838 11.928101 8.0566406 12.052734L7 10.996094 6 10.996094 6 11.996094 9.9042969 15.900391C10.181608 16.218713 10.468704 16.535527 10.65625 16.796875 10.907126 17.146475 11.029297 17.427038 11.029297 17.710938L11.029297 19.515625 11.029297 21.001953 15.722656 25.695312z" color="#000" font-family="sans-serif" font-weight="400" transform="translate(-5 1031.362)" style="line-height:normal;text-indent:0;text-align:start;text-decoration-line:none;text-decoration-style:solid;text-decoration-color:#000;text-transform:none;block-progression:tb;isolation:auto;mix-blend-mode:normal" fill="#ff7712"/><path style="line-height:normal;text-indent:0;text-align:start;text-decoration-line:none;text-decoration-style:solid;text-decoration-color:#000;text-transform:none;block-progression:tb;isolation:auto;mix-blend-mode:normal" d="m 7.5,-0.00195313 0,1.00000001 1,0 0,-1.00000001 -1,0 z M 3.4042969,1.6933594 2.6972656,2.4003906 3.4042969,3.1074219 4.1113281,2.4003906 3.4042969,1.6933594 Z m 9.1914061,0 -0.707031,0.7070312 0.707031,0.7070313 0.707031,-0.7070313 -0.707031,-0.7070312 z M 8.0273438,1.9980469 c -2.7322668,0 -4.9921876,2.0812875 -4.9921876,4.6796875 0,1.7859 0.8433816,3.0064218 1.6152344,3.9199216 0.3859265,0.4568 0.7549831,0.849619 1.0058594,1.199219 0.2508763,0.3496 0.3730469,0.632116 0.3730469,0.916016 l 0,1.804687 0,1.486328 1.4667969,0 0.96875,0 1.5605472,0 0,-1.472656 0,-1.818359 c 0,-0.2839 0.123854,-0.569875 0.375,-0.921875 0.251145,-0.3519 0.618277,-0.746878 1.003906,-1.205078 0.771258,-0.9166005 1.615234,-2.1354036 1.615234,-3.9082036 0,-2.5984 -2.259921,-4.6796875 -4.9921872,-4.6796875 z m 0,1 c 2.2295162,0 3.9921872,1.6621875 3.9921872,3.6796875 0,1.4644 -0.654767,2.402725 -1.380859,3.265625 -0.363046,0.4313996 -0.7423735,0.8325786 -1.0527345,1.2675786 -0.310361,0.434899 -0.5605469,0.927353 -0.5605469,1.501953 l 0,0.455078 a 0.50004997,0.50004997 0 0 0 -0.091797,-0.0078 l -0.4335938,0 0,-4.1621091 0.5,0 0,-1 -2,0 0,1 0.5,0 0,4.1621091 -0.4335938,0 a 0.50004997,0.50004997 0 0 0 -0.037109,0 l 0,-0.447265 c 0,-0.5746 -0.2499167,-1.0672 -0.5605469,-1.5 C 6.1581198,10.780091 5.7768114,10.382425 5.4140625,9.953125 4.6885647,9.094425 4.0351562,8.1579344 4.0351562,6.6777344 c 0,-2.0175 1.7626701,-3.6796875 3.9921876,-3.6796875 z m -7.0273438,3 0,1 1,0 0,-1 -1,0 z m 13,0 0,1 1,0 0,-1 -1,0 z m -4.9746094,8.1542971 0,0.378906 0,0.472656 -0.5605468,0 -0.96875,0 -0.4667969,0 0,-0.486328 0,-0.359375 a 0.50004997,0.50004997 0 0 0 0.00195,0 0.50004997,0.50004997 0 0 0 0.035156,0.002 l 1.8671876,0 a 0.50004997,0.50004997 0 0 0 0.091797,-0.0078 z" color="#000" font-family="sans-serif" font-weight="400" overflow="visible" transform="translate(0 1036.361)"/></g></svg>