<?xml version="1.0" encoding="utf-8"?>
<!-- Generator: Adobe Illustrator 24.0.0, SVG Export Plug-In . SVG Version: 6.00 Build 0)  -->
<svg version="1.1" id="Layer_1" xmlns="http://www.w3.org/2000/svg" xmlns:xlink="http://www.w3.org/1999/xlink" x="0px" y="0px"
	 viewBox="0 0 1366 768" style="enable-background:new 0 0 1366 768;" xml:space="preserve">
<style type="text/css">
	.st0{fill:#3A7EEF;}
	.st1{fill:#FFFFFF;}
	.st2{fill:#FFFFFF;stroke:#000000;stroke-width:5;stroke-miterlimit:10;}
</style>
<path class="st0" d="M893,341.21c0,0,42.26,49.73,50,65c8.59,16.95,4.49,30.98,1,31c0,0-22.44,11.9-26,10c-30-16-23-56-23-56
	L893,341.21z"/>
<path class="st0" d="M511,341.5c0,0-42.26,49.73-50,65c-8.59,16.95-4.49,30.98-1,31c0,0,22.44,11.9,26,10c30-16,23-56,23-56
	L511,341.5z"/>
<g>
	<ellipse class="st0" cx="702.5" cy="363.5" rx="198.5" ry="213"/>
</g>
<circle class="st1" cx="704.5" cy="471" r="106.5"/>
<circle class="st2" cx="582" cy="227.5" r="77.5"/>
<circle class="st2" cx="819" cy="230.5" r="77.5"/>
<circle cx="793" cy="246.5" r="36"/>
<polygon points="679,314.5 700,352.5 718,314.5 698,300.5 "/>
<circle cx="609" cy="246.5" r="36"/>
<circle class="st1" cx="629" cy="226.5" r="11"/>
<circle class="st1" cx="768" cy="230.5" r="11"/>
</svg>
