<svg xmlns="http://www.w3.org/2000/svg" width="24" height="24" viewBox="0 0 6.35 6.35"><path fill-rule="evenodd" d="M 7.953125 0.99804688 C 6.3084541 0.99804688 4.947266 2.3572917 4.9472656 4.0019531 L 4.9472656 20 C 4.947266 21.644661 6.3084315 23.003906 7.953125 23.003906 L 11.947266 23.003906 C 13.591959 23.003906 14.951172 21.644661 14.951172 20 L 14.951172 15.998047 C 14.951172 14.664403 12.951172 14.664403 12.951172 15.998047 L 12.951172 20 C 12.951172 20.571238 12.518522 21.003906 11.947266 21.003906 L 7.953125 21.003906 C 7.3818691 21.003906 6.9492188 20.571238 6.9492188 20 L 6.9492188 4.0019531 C 6.9492188 3.4307153 7.381846 2.9980469 7.953125 2.9980469 L 11.947266 2.9980469 C 12.518545 2.9980469 12.951172 3.4307153 12.951172 4.0019531 L 12.951172 8.0039062 C 12.951172 9.3375503 14.951172 9.3375503 14.951172 8.0039062 L 14.951172 4.0019531 C 14.951172 2.3572917 13.591936 0.99804688 11.947266 0.99804688 L 7.953125 0.99804688 z M 1.9570312 4.984375 A 1.0001001 1.0001001 0 0 0 0.94726562 6.0039062 L 0.94726562 17.998047 A 1.0002461 1.0002461 0 0 0 2.9472656 17.998047 L 2.9472656 6.0039062 A 1.0001001 1.0001001 0 0 0 1.9648438 4.984375 A 1.0001001 1.0001001 0 0 0 1.9570312 4.984375 z M 17.994141 6.9882812 A 1.0001001 1.0001001 0 0 0 17.898438 6.9921875 A 1.0001001 1.0001001 0 0 0 17.298828 8.7050781 L 19.59375 11 L 10.005859 11 C 9.9714279 10.998224 9.9367677 10.998224 9.9023438 11 C 8.5688433 11.069165 8.6723608 13.070967 10.005859 13.001953 L 19.587891 13.001953 L 17.298828 15.289062 A 1.0001001 1.0001001 0 1 0 18.708984 16.707031 L 22.710938 12.705078 A 1.0001001 1.0001001 0 0 0 22.710938 11.294922 L 18.708984 7.2949219 A 1.0001001 1.0001001 0 0 0 17.994141 6.9882812 z " color="#000" font-family="sans-serif" font-weight="400" overflow="visible" paint-order="stroke fill markers" transform="scale(.26458)" style="line-height:normal;font-variant-ligatures:normal;font-variant-position:normal;font-variant-caps:normal;font-variant-numeric:normal;font-variant-alternates:normal;font-feature-settings:normal;text-indent:0;text-align:start;text-decoration-line:none;text-decoration-style:solid;text-decoration-color:#000;text-transform:none;text-orientation:mixed;shape-padding:0;isolation:auto;mix-blend-mode:normal"/></svg>