<svg xmlns="http://www.w3.org/2000/svg" data-name="Layer 1" viewBox="0 0 32 32"><defs><linearGradient id="a" x1="2" x2="30" y1="16" y2="16" gradientUnits="userSpaceOnUse"><stop offset="0" stop-color="#29abe2"/><stop offset="1" stop-color="#39b54a"/></linearGradient></defs><path fill="url(#a)" d="M13.37,30a11.16,11.16,0,0,1-3-22,1,1,0,0,1,1.18,1.35,8.82,8.82,0,0,0-.65,3.35,9.29,9.29,0,0,0,9.37,9.18,9.76,9.76,0,0,0,2.47-.32,1,1,0,0,1,1.18,1.34A11.28,11.28,0,0,1,13.37,30ZM9.11,10.64A9.18,9.18,0,0,0,4,18.82,9.29,9.29,0,0,0,13.37,28a9.34,9.34,0,0,0,7.82-4.12q-.45,0-.9,0A11.29,11.29,0,0,1,8.91,12.73,11,11,0,0,1,9.11,10.64ZM27.85,17a1,1,0,0,1-.48-.12L26,16.12l-1.37.76a1,1,0,0,1-1.47-1l.27-1.67L22.28,13a1,1,0,0,1,.56-1.69l1.55-.24.7-1.49a1,1,0,0,1,1.81,0l.7,1.49,1.55.24A1,1,0,0,1,29.72,13l-1.15,1.18.27,1.67a1,1,0,0,1-1,1.16ZM26,14a1,1,0,0,1,.48.13l.05,0,0-.14a1,1,0,0,1,.27-.86l.14-.14-.15,0A1,1,0,0,1,26,12.4l0,0,0,0a1,1,0,0,1-.75.56l-.15,0,.14.14a1,1,0,0,1,.27.86l0,.14.05,0A1,1,0,0,1,26,14Zm-5.15-4a1,1,0,0,1-.48-.12L19,9.12l-1.37.76a1,1,0,0,1-1.47-1l.27-1.67L15.28,6a1,1,0,0,1,.56-1.69l1.55-.24.7-1.49a1,1,0,0,1,1.81,0l.7,1.49,1.55.24A1,1,0,0,1,22.72,6L21.57,7.17l.27,1.67a1,1,0,0,1-1,1.16ZM19,7a1,1,0,0,1,.48.13l.05,0,0-.14a1,1,0,0,1,.27-.86L19.93,6l-.15,0A1,1,0,0,1,19,5.4l0,0,0,0a1,1,0,0,1-.75.56l-.15,0,.14.14a1,1,0,0,1,.27.86l0,.14.05,0A1,1,0,0,1,19,7Z"/></svg>