<svg xmlns="http://www.w3.org/2000/svg" width="48" height="48" enable-background="new 0 0 40 40" version="1" viewBox="0 0 48 48"><circle cx="37.045" cy="28.409" r="12.5" fill="#50b748" fill-rule="evenodd" transform="matrix(1.92 0 0 1.92 -47.127 -30.545)"/><g transform="translate(4 4.623)"><g transform="translate(1271.293 -844.992)"><path fill="#617a8d" d="m -1256.841,859.369 10,0 c 3.314,0 6,2.686 6,6 l 0,1.597 c 0,3.313 -2.686,6 -6,6 l -10,0 c -3.314,0 -6,-2.687 -6,-6 l 0,-1.597 c 0,-3.314 2.685,-6 6,-6 z"/><rect width="22" height="7.598" x="-1262.841" y="865.772" fill="#617a8d"/><path fill="#fcd062" d="m -1251.841,846.369 0,0 c 3.314,0 6,2.686 6,6 l 0,0 c 0,3.313 -2.686,6 -6,6 l 0,0 c -3.314,0 -6,-2.687 -6,-6 l 0,0 c 0,-3.314 2.685,-6 6,-6 z"/></g><path fill="#34485c" d="m 18.4523,16.3782 -1,8 2,2 2,-2 -1,-8 -2,0 z"/><path fill="#f05542" d="m 16.0009,32.8778 -11.502,0 c -0.371,0 -0.611,-0.391 -0.445,-0.723 l 0.869,-1.737 c 0.17,-0.34 0.17,-0.74 0,-1.08 l -0.867,-1.733 c -0.168,-0.334 0.074,-0.727 0.449,-0.727 l 11.496,0 0,6 z"/><rect width="1" height="6" x="6.999" y="26.878" fill="#fcd062"/><path fill="#f05542" d="m 23.9969,32.8778 11.502,0 c 0.371,0 0.613,-0.391 0.447,-0.723 l -0.869,-1.737 c -0.17,-0.34 -0.17,-0.74 0,-1.08 l 0.867,-1.733 c 0.166,-0.334 -0.076,-0.727 -0.449,-0.727 l -11.498,0 0,6 z"/><path fill="#d73b28" d="M24.9969 32.8778l3.025 0c.527-1.112 1.945-1.594 1.977-2.842.033-1.295-1.477-1.833-1.891-3.061-.01-.032-.012-.065-.021-.098l-3.09 0 0 6.001 0 0zM10.2799 26.8818c.09.889.838 1.717.813 2.719-.029 1.214-1.186 2.152-.938 3.281l5.844 0 0-6-5.719 0z"/><rect width="1" height="6" x="31.999" y="26.878" fill="#fcd062"/><path fill="#f8b84e" d="m 25.345784,35.863028 c -0.819289,0.819289 -0.649897,2.243205 -1.69999,2.732871 -1.050092,0.489666 -2.031992,-0.555371 -3.186232,-0.454388 -1.154241,0.100983 -1.939754,1.300649 -3.058923,1.000768 -1.11917,-0.29988 -1.199611,-1.731578 -2.148721,-2.396152 -0.94911,-0.664574 -2.321979,-0.250495 -2.986553,-1.199605 -0.664574,-0.949109 0.194082,-2.097561 -0.105798,-3.21673 -0.299881,-1.119169 -1.617724,-1.684429 -1.516741,-2.83867 0.100982,-1.15424 1.496962,-1.482071 1.986628,-2.532164 0.489666,-1.050093 -0.156519,-2.330201 0.66277,-3.149489 0.819289,-0.819289 2.099397,-0.173104 3.14949,-0.662771 1.050092,-0.489666 1.377924,-1.885645 2.532164,-1.986628 1.15424,-0.100983 1.7195,1.216861 2.838669,1.516741 1.11917,0.299881 2.267621,-0.558776 3.216731,0.105798 0.94911,0.664574 0.53503,2.037443 1.199604,2.986553 0.664574,0.94911 2.096273,1.029552 2.396153,2.148721 0.299881,1.119169 -0.899786,1.904683 -1.000769,3.058923 -0.100983,1.15424 0.944055,2.13614 0.454389,3.186233 -0.489666,1.050092 -1.913583,0.8807 -2.732871,1.699989 z"/><path fill="#fcd062" d="m 24.12628,34.643523 c -0.643728,0.643728 -0.510634,1.762522 -1.335708,2.147261 -0.825075,0.384738 -1.59657,-0.436365 -2.503475,-0.357021 -0.906905,0.07934 -1.524096,1.021941 -2.403445,0.78632 -0.879349,-0.23562 -0.942553,-1.360529 -1.688284,-1.882695 -0.745731,-0.522167 -1.824416,-0.196818 -2.346583,-0.942549 -0.522166,-0.745731 0.152494,-1.648088 -0.08313,-2.527437 -0.235621,-0.879349 -1.271072,-1.323483 -1.191728,-2.230388 0.07934,-0.906905 1.176187,-1.164487 1.560926,-1.989562 0.384738,-0.825075 -0.12298,-1.830876 0.520749,-2.474605 0.643728,-0.643728 1.64953,-0.13601 2.474604,-0.520749 0.825075,-0.384739 1.082657,-1.481582 1.989563,-1.560926 0.906905,-0.07934 1.351039,0.956107 2.230388,1.191728 0.879349,0.235621 1.781706,-0.439039 2.527437,0.08313 0.745731,0.522167 0.420382,1.600852 0.942548,2.346583 0.522167,0.745731 1.647075,0.808935 1.882696,1.688284 0.235621,0.87935 -0.706976,1.49654 -0.78632,2.403445 -0.07934,0.906906 0.741759,1.6784 0.35702,2.503475 -0.384738,0.825075 -1.503532,0.69198 -2.147261,1.335709 z"/></g></svg>