<svg xmlns="http://www.w3.org/2000/svg" enable-background="new 0 0 50 50" viewBox="0 0 50 50"><path fill="#696967" d="M32.0909,0.9967c-5.2234,0-9.4783,4.2548-9.4783,9.4783v1.57c0.1907-0.1028,0.3961-0.1469,0.6162-0.1469
				h2.3183v-1.4232c0-3.6093,2.9345-6.5438,6.5438-6.5438c3.6094,0,6.5439,2.9345,6.5439,6.5438v1.4232h2.3183
				c0.22,0,0.4255,0.0441,0.6162,0.1469v-1.57C41.5693,5.2515,37.3143,0.9967,32.0909,0.9967z"/><path fill="#9A7EAA" d="M42.8664,13.4224l0,10.3267c0,5.902-4.5508,11.046-10.4503,11.2195
			c-6.1028,0.1794-11.1007-4.7086-11.1007-10.7707V13.4224c0-0.8453,0.6853-1.5306,1.5306-1.5306h4.6188
			c0.6747,0,1.3334,0.3851,1.5467,1.0252c0.4296,1.2892,1.6467,2.2199,3.0793,2.2199c1.4326,0,2.6498-0.9307,3.0793-2.2199
			c0.2133-0.6401,0.872-1.0252,1.5467-1.0252h4.6189C42.1812,11.8918,42.8664,12.5771,42.8664,13.4224z"/><path fill="#444445" d="M34.1918,22.7229l0.4799,3.3767c0.0343,0.3256-0.2057,0.617-0.5314,0.617h-2.2111
			c-0.3085,0-0.5657-0.2915-0.5142-0.617l0.4627-3.3767c-0.5999-0.3942-1.0284-1.0458-1.0284-1.817
			c0-1.1998,0.977-2.1941,2.194-2.1941c1.1999,0,2.1769,0.9943,2.1769,2.1941C35.2202,21.6771,34.8088,22.3287,34.1918,22.7229z"/><circle cx="23.193" cy="13.937" r=".765" fill="#896A9D"/><circle cx="26.608" cy="13.937" r=".765" fill="#896A9D"/><circle cx="37.574" cy="13.937" r=".765" fill="#896A9D"/><circle cx="40.989" cy="13.937" r=".765" fill="#896A9D"/><path fill="#C7C7C7" d="M41.5426,36.5311h-17.373l-1.079-1.4619c-0.9101,0.1489-1.8742-0.0385-2.6353-0.2761
				c-1.86-0.5808-1.6153-1.9143-2.9434-3.1872c-0.5426-0.5281-1.2092-0.4208-1.9827-0.4208
				c-0.7388-2.0252-4.0758-2.1525-4.6099,1.5278c-0.2161,1.4444-1.1487,2.6954-2.468,3.321
				c-0.0607,0.0303-0.0948,0.0417-0.0948,0.0417c-1.7287,0.8492-1.6908,3.3134-1.6908,3.3134
				c-0.0625,4.0609,3.6714,2.7885,4.2536,6.6761c0.5432,3.7089,3.8848,3.536,4.6099,1.5278c0.7716,0,1.4379,0.1061,1.9827-0.4171
				c1.9258-1.8546,1.2958-4.5882,4.2176-4.7916c0.069-0.0048,0.1081-0.0053,0.1081-0.0053h3.8985l0.5221-1.3923h1.6011
				l1.1139-1.2183h1.3575l1.4619,1.2183l1.7404-1.6183h2.1273l1.3227,1.6183h1.1835l0.5569-0.8006h1.4619l0.6788,0.8006
				l2.4713-2.6628L41.5426,36.5311z M11.6736,41.2882h-1.3193c-1.6896,0-2.5246-2.0419-1.342-3.2376
				c0.3412-0.345,0.8151-0.5535,1.342-0.5535h1.3193V41.2882z"/><path fill="#696967" d="M43.3321,38.3243l-0.2737,0.2925H24.5316c-0.1133,0-0.1887-0.151-0.1887-0.3303
					c0-0.1793,0.0755-0.3303,0.1887-0.3303H42.964L43.3321,38.3243z"/></svg>