<svg xmlns="http://www.w3.org/2000/svg" viewBox="0 0 231.005 230.562"><g data-name="Mother's_Day"><circle cx="115.503" cy="115.281" r="108.338" fill="#5dbafb"/><path fill="#aaddf9" d="M115.5027,223.6183a107.8528,107.8528,0,0,0,50.4617-12.454L155.907,33.2244l-76.3322-.1981L8.6957,97.0787a108.3891,108.3891,0,0,0,106.807,126.54Z"/><path fill="#0a007b" d="M113.7153,55.9275H156.47a56.95,56.95,0,0,1,56.95,56.95v44.02a15.6314,15.6314,0,0,1-15.6314,15.6314H72.3966a15.6314,15.6314,0,0,1-15.6314-15.6314v-44.02a56.95,56.95,0,0,1,56.95-56.95Z"/><rect width="16.724" height="88.651" x="50.808" y="75.171" fill="#164ea3" rx="8.362"/><path fill="#164ea3" d="M215.4784,75.1712a8.3864,8.3864,0,0,0-8.3619,8.3617V155.46a8.3859,8.3859,0,0,0,5.5141,7.8487,108.5819,108.5819,0,0,0,3.5523-88.1017C215.95,75.1873,215.7161,75.1712,215.4784,75.1712Z"/><path fill="#0a007b" d="M182.1827,200.67a41.6338,41.6338,0,0,0,.9766-8.94h0a42.0233,42.0233,0,0,0-41.9-41.9H60.6448A42.0377,42.0377,0,0,0,23.474,172.4728l-.003-.005a108.3653,108.3653,0,0,0,158.71,28.2062Z"/><path fill="#ffde17" d="M88.5882,10.3148A47.5614,47.5614,0,0,0,79.687,38.0763c0,.1215.0082.241.0091.3623l-.0116-.0013V209.7265h66.8639V96.9087c19.0013-8.9415,32.6205-32.3606,32.6205-54.0368a41.7864,41.7864,0,0,0-3.7307-17.8456,108.5874,108.5874,0,0,0-86.85-14.7115Z"/><path fill="#5dbafb" d="M171.7105,97.5836,154.3211,58.7144a10.3613,10.3613,0,0,0,5.427-9.2472c0-3.3847-2.7529-6.4208-5.4675-8.5918a6.3285,6.3285,0,0,0-8.8318.9778l-1.4105,1.7228.0069.0287-.0068-.01L89.6721,32.3273l19.2168,57.9975A11.9221,11.9221,0,0,0,122.1165,98.33l15.7255-1.6142h0l8.7064,20.2023,18.0564-7.204,10.6731-4.1559Z"/><path fill="#aaddf9" d="M47.8957,199.94A108.3589,108.3589,0,0,0,222.121,134.6089l-.0056.0149a24.2511,24.2511,0,0,0-1.6141-9.45,46.7292,46.7292,0,0,0-42.8625-29.0382,13.0413,13.0413,0,0,0-5.9313,1.4412c-1.294,11.6416-26.7234,7.7123-34.6025,10.3475-17.2258,5.7612-29.9095,22.8326-29.4579,41.1729a85.5989,85.5989,0,0,1,44.026,7.6761c-32.84-12.0192-70.6787-2.1691-93.547,24.0881a85.7929,85.7929,0,0,0-8.9493,12.3018A10.4779,10.4779,0,0,0,47.8957,199.94Z"/><path fill="#0a007b" d="M115.5027,148.7226a85.3851,85.3851,0,0,0-71.2986,38.5116c-4.1195,6.2726-3.7062,6.5667,2.0144,11.3309l1.6772,1.3747a10.6245,10.6245,0,0,1,.7455-5.7991c20.3987-34.9979,64.3154-51.5373,103.0319-37.3673A85.4479,85.4479,0,0,0,115.5027,148.7226Z"/><polygon fill="#0a007b" points="125.063 98.008 151.12 91.458 141.609 97.671 142.19 106.694 137.842 96.715 125.063 98.008"/></g></svg>