<svg xmlns="http://www.w3.org/2000/svg" enable-background="new 0 0 32 32" viewBox="0 0 32 32"><path d="M14,2c-3.3,0-6,2.7-6,6v4c-1.7,0-3,1.3-3,3v6c0,2.4,0.9,4.7,2.6,6.4c1.7,1.7,4,2.6,6.4,2.6c4.3,0,7.9-3,8.8-7
		c0.1,0,0.1,0,0.2,0c1.1,0,2.1-0.4,2.8-1.2c0.8-0.8,1.2-1.8,1.2-2.8s-0.4-2.1-1.2-2.8S24.1,15,23,15c0-1.7-1.3-3-3-3V8
		C20,4.7,17.3,2,14,2z M24.4,17.6C24.8,18,25,18.5,25,19s-0.2,1-0.6,1.4c-0.5,0.5-1.3,0.7-2.1,0.5c-0.8-0.3-1.3-1-1.3-1.9
		c0-0.5,0.2-1,0.6-1.4c0.2-0.2,0.5-0.4,0.8-0.5C22.6,17,22.8,17,23,17C23.5,17,24,17.2,24.4,17.6z M21,15v0.6
		c-0.3,0.2-0.6,0.4-0.8,0.6c-0.5,0.5-0.9,1.1-1,1.8H10c-0.6,0-1,0.4-1,1v2c0,0.6,0.4,1,1,1s1-0.4,1-1v-1h2v1c0,0.6,0.4,1,1,1
		s1-0.4,1-1v-1h4.1c0.3,1,0.9,1.8,1.7,2.4C20.2,25.6,17.4,28,14,28c-1.9,0-3.6-0.7-5-2c-1.3-1.3-2-3.1-2-5v-6c0-0.6,0.4-1,1-1h12
		C20.6,14,21,14.4,21,15z M10,12V8c0-2.2,1.8-4,4-4s4,1.8,4,4v4H10z"/></svg>