<svg xmlns="http://www.w3.org/2000/svg" enable-background="new 0 0 20 20" viewBox="0 0 20 20"><linearGradient id="a" x1="7.531" x2="12.531" y1="9.063" y2="9.063" gradientUnits="userSpaceOnUse"><stop offset="0" stop-color="#ffc80b"/><stop offset="1" stop-color="#e89318"/></linearGradient><circle cx="10" cy="9.1" r="2.5" fill="url(#a)"/><linearGradient id="b" x1="4" x2="16" y1="11" y2="11" gradientUnits="userSpaceOnUse"><stop offset="0" stop-color="#ff5640"/><stop offset="1" stop-color="#cc3737"/></linearGradient><path fill="url(#b)" d="M10,3C6.7,3,4,5.8,4,9.2c0,2.7,3.6,7.4,5.2,9.4c0.4,0.5,1.1,0.5,1.5,0c1.6-2,5.2-6.8,5.2-9.4   C16,5.8,13.3,3,10,3z M10,11c-1.1,0-2-0.9-2-2s0.9-2,2-2c1.1,0,2,0.9,2,2S11.1,11,10,11z"/></svg>