<svg xmlns="http://www.w3.org/2000/svg" width="48" height="48" viewBox="0 0 48 48"><g transform="translate(0 -1004.362)"><circle cx="24" cy="1028.362" r="24" fill="#239fdb" fill-rule="evenodd"/><path fill="#0b5ecd" fill-rule="evenodd" style="line-height:normal;text-indent:0;text-align:start;text-decoration-line:none;text-decoration-style:solid;text-decoration-color:#000;text-transform:none;block-progression:tb;isolation:auto;mix-blend-mode:normal" d="M 26.357422 47.859375 A 23.999992 23.999992 0 0 0 28.080078 47.650391 A 23.999992 23.999992 0 0 0 30.419922 47.125 A 23.999992 23.999992 0 0 0 32.697266 46.369141 A 23.999992 23.999992 0 0 0 34.886719 45.388672 A 23.999992 23.999992 0 0 0 36.966797 44.195312 A 23.999992 23.999992 0 0 0 38.917969 42.800781 A 23.999992 23.999992 0 0 0 40.720703 41.216797 A 23.999992 23.999992 0 0 0 42.355469 39.460938 A 23.999992 23.999992 0 0 0 43.808594 37.550781 A 23.999992 23.999992 0 0 0 45.0625 35.505859 A 23.999992 23.999992 0 0 0 46.105469 33.345703 A 23.999992 23.999992 0 0 0 46.927734 31.091797 A 23.999992 23.999992 0 0 0 47.011719 30.759766 L 35.119141 18.867188 L 35.111328 18.857422 C 35.03662 18.782703 34.949288 18.722811 34.867188 18.65625 C 34.800249 18.60197 34.73942 18.540635 34.667969 18.492188 C 34.350875 18.277251 33.990065 18.12133 33.603516 18.041016 C 33.408105 18.000415 33.207075 17.978516 33 17.978516 C 31.969169 17.978516 31.057919 18.507759 30.517578 19.308594 L 26.982422 15.773438 L 26.974609 15.763672 C 26.971668 15.760712 26.967794 15.75881 26.964844 15.755859 C 26.775131 15.566136 26.568087 15.393357 26.345703 15.242188 C 26.121375 15.089695 25.880842 14.959122 25.628906 14.851562 C 25.469315 14.783429 25.29772 14.741585 25.128906 14.693359 C 24.762463 14.588675 24.38352 14.515625 23.984375 14.515625 C 21.653014 14.515625 19.755868 16.428331 19.755859 18.769531 C 19.75586 19.039721 19.788744 19.301252 19.837891 19.556641 C 19.844393 19.590476 19.848153 19.624667 19.855469 19.658203 C 19.907442 19.896373 19.981609 20.124539 20.072266 20.345703 C 20.089861 20.388637 20.107992 20.430439 20.126953 20.472656 C 20.179645 20.590027 20.247744 20.69711 20.310547 20.808594 C 20.398837 20.965334 20.490917 21.117859 20.597656 21.261719 C 20.669243 21.358253 20.746956 21.446919 20.826172 21.537109 C 20.889027 21.60871 20.940457 21.690456 21.007812 21.757812 L 21.289062 22.039062 C 21.018721 22.060823 20.754234 22.099998 20.496094 22.158203 C 20.473996 22.163186 20.45364 22.172495 20.431641 22.177734 L 17.119141 18.867188 L 17.111328 18.857422 C 17.03662 18.782703 16.949288 18.722811 16.867188 18.65625 C 16.800249 18.60197 16.73942 18.540635 16.667969 18.492188 C 16.350875 18.277251 15.990065 18.12133 15.603516 18.041016 C 15.408105 18.000415 15.207075 17.978516 15 17.978516 C 13.346667 17.978516 11.999995 19.339 12 21 C 11.999997 21.8191 12.331172 22.561122 12.861328 23.107422 C 10.666313 23.508222 9 25.437519 9 27.761719 L 9 30.501953 A 0.50004991 0.50004991 0 0 0 9.5 31.001953 L 26.357422 47.859375 z " color="#000" font-family="sans-serif" font-weight="400" transform="translate(0 1004.362)"/><path fill="#fff" fill-rule="evenodd" style="line-height:normal;text-indent:0;text-align:start;text-decoration-line:none;text-decoration-style:solid;text-decoration-color:#000;text-transform:none;block-progression:tb;isolation:auto;mix-blend-mode:normal" d="m 15.984375,7.515625 c -2.331361,0 -4.228507,1.9127063 -4.228516,4.253906 5e-6,1.318456 0.614588,2.484592 1.556641,3.265625 -1.114742,0.08536 -2.136764,0.491181 -2.982422,1.125 -0.32834,-0.0795 -0.6688776,-0.136718 -1.0292968,-0.136718 l -0.091797,0 C 9.6949079,15.48535 10.000002,14.779762 10,14 c 5e-6,-1.661 -1.3466671,-3.021484 -3,-3.021484 -1.6533329,0 -3.0000051,1.360484 -3,3.021484 -2.5e-6,0.819062 0.3311723,1.561128 0.8613281,2.107422 C 2.6663101,16.508203 1,18.437474 1,20.761719 l 0,2.740234 a 0.50004991,0.50004991 0 0 0 0.5,0.5 l 6.5117188,0 0,0.480469 a 0.50004991,0.50004991 0 0 0 0.5,0.5 l 2.8632812,0 a 0.50004991,0.50004991 0 0 0 0.263672,0 l 8.720703,0 a 0.50004991,0.50004991 0 0 0 0.263672,0 l 2.865234,0 a 0.50004991,0.50004991 0 0 0 0.5,-0.5 l 0,-0.480469 6.511719,0 a 0.50004991,0.50004991 0 0 0 0.5,-0.5 l 0,-2.740234 C 31,18.437474 29.33369,16.508203 27.138672,16.107422 27.668828,15.561128 28.000002,14.819062 28,14 c 5e-6,-1.661 -1.346667,-3.021484 -3,-3.021484 -1.653333,0 -3.000005,1.360484 -3,3.021484 -2e-6,0.779762 0.305092,1.48535 0.791016,2.023438 l -0.0918,0 c -0.360609,0 -0.701104,0.0574 -1.029297,0.136718 -0.852505,-0.638939 -1.884547,-1.044175 -3.009766,-1.125 0.941593,-0.781045 1.554683,-1.947982 1.554688,-3.265625 -9e-6,-2.3411998 -1.899108,-4.253906 -4.230469,-4.253906 z m 0,1 c 1.787423,0 3.230462,1.4496062 3.230469,3.253906 -7e-6,1.777864 -1.403103,3.202723 -3.154297,3.244141 l -0.152344,0 c -1.751139,-0.04142 -3.152337,-1.466277 -3.152344,-3.244141 7e-6,-1.8042998 1.441093,-3.253906 3.228516,-3.253906 z M 7,11.978516 c 1.1079591,0 2.0000034,0.896084 2,2.021484 3.4e-6,1.1255 -0.8920409,2.023438 -2,2.023438 -1.1079591,0 -2.0000034,-0.897938 -2,-2.023438 -3.4e-6,-1.1254 0.8920409,-2.021484 2,-2.021484 z m 18,0 c 1.107959,0 2.000003,0.896084 2,2.021484 3e-6,1.1255 -0.892041,2.023438 -2,2.023438 -1.107959,0 -2.000003,-0.897938 -2,-2.023438 -3e-6,-1.1254 0.892041,-2.021484 2,-2.021484 z m -11.246094,4.035156 1.244141,0 -0.496094,5.945312 a 0.50005,0.50005 0 0 0 0.144531,0.394532 l 1,1 a 0.50005,0.50005 0 0 0 0.707032,0 l 1,-1 a 0.50005,0.50005 0 0 0 0.144531,-0.394532 l -0.496094,-5.945312 1.244141,0 c 1.106007,0 2.106624,0.389171 2.910156,1.019531 a 0.50004991,0.50004991 0 0 0 0.002,0.002 0.50004991,0.50004991 0 0 0 0.05664,0.05664 c 0.484566,0.394985 0.885632,0.881832 1.1875,1.431641 0.04149,0.07759 0.08771,0.152266 0.125,0.232421 0.05079,0.106241 0.09576,0.215667 0.138672,0.326172 0.08279,0.219594 0.156634,0.443524 0.207031,0.677735 0.01197,0.05394 0.01918,0.109396 0.0293,0.164062 0.05036,0.280959 0.08594,0.568695 0.08594,0.865234 l 0,1 0,1.712891 0,0.480469 -1.996093,0 0,-2.894531 a 0.50004991,0.50004991 0 0 0 -0.507813,-0.507813 0.50004991,0.50004991 0 0 0 -0.492187,0.507813 l 0,2.894531 -7.984376,0 0,-2.894531 A 0.50004991,0.50004991 0 0 0 11.5,20.580078 0.50004991,0.50004991 0 0 0 11.007812,21.087891 l 0,2.894531 -1.9960932,0 0,-0.480469 0,-1.712891 0,-1 c 0,-0.296528 0.035571,-0.584282 0.085937,-0.865234 0.010114,-0.05466 0.017322,-0.110122 0.029297,-0.164062 0.050398,-0.234206 0.124242,-0.458143 0.2070313,-0.677735 0.042908,-0.110506 0.087878,-0.219929 0.1386718,-0.326172 0.037285,-0.08015 0.083505,-0.15483 0.125,-0.232421 0.3018691,-0.549822 0.7029401,-1.036656 1.1875001,-1.431641 a 0.50004991,0.50004991 0 0 0 0.05859,-0.05859 c 0.803533,-0.630373 1.804154,-1.019531 2.910156,-1.019531 z M 16,16.019531 a 0.50005,0.50005 0 0 0 0.002,0.02148 L 16.482422,21.808594 16,22.291016 15.517578,21.808594 15.998047,16.041016 A 0.50005,0.50005 0 0 0 16,16.019531 Z m -10.2988281,1.003907 3.5996093,0 c 0.031615,0 0.061473,0.0078 0.091797,0.01367 -0.8591886,1.009653 -1.3808593,2.318847 -1.3808593,3.751953 l 0,1 0,1.212891 -3.0117188,0 0,-2.494141 A 0.50004991,0.50004991 0 0 0 4.4921875,20.001953 0.50004991,0.50004991 0 0 0 4,20.507812 l 0,2.494141 -2,0 0,-2.240234 c 0,-2.0818 1.6447329,-3.738281 3.7011719,-3.738281 z m 16.9980471,0 3.599609,0 C 28.355267,17.023438 30,18.679919 30,20.761719 l 0,2.240234 -2,0 0,-2.244141 A 0.50004991,0.50004991 0 0 0 27.492188,20.25 0.50004991,0.50004991 0 0 0 27,20.757812 l 0,2.244141 -3.011719,0 0,-1.212891 0,-1 c 0,-1.433151 -0.521669,-2.742309 -1.380859,-3.751953 0.03033,-0.0056 0.0602,-0.01367 0.0918,-0.01367 z" color="#000" font-family="sans-serif" font-weight="400" overflow="visible" transform="translate(8 1011.362)"/></g></svg>