<svg xmlns="http://www.w3.org/2000/svg" enable-background="new 0 0 1024 1024" viewBox="0 0 1024 1024"><path d="M494.7,54.2c-16.6,33.2-33.3,66.3-49.9,99.5c-26.6,52.9-53.1,105.8-79.7,158.7
			c-6.1,12.2-12.2,24.4-18.4,36.6c4-3.1,8-6.1,12-9.2c-35.3,5.7-70.6,11.4-105.9,17c-56.3,9.1-112.6,18.1-168.9,27.2
			c-13,2.1-25.9,4.2-38.9,6.3c-15.3,2.5-18.7,23.7-8.8,33.4c26,25.7,52,51.3,78,77c41.4,40.9,82.9,81.8,124.3,122.8
			c9.5,9.4,19,18.8,28.5,28.2c-1.7-6.5-3.4-13-5.1-19.5c-5.7,36.4-11.4,72.8-17,109.2c-9,57.8-18,115.6-27,173.4
			c-2.1,13.2-4.1,26.5-6.2,39.7c-1.3,8.2,0.2,15.7,7.2,21c6.5,5,15,5.4,22.2,1.6c31.6-16.7,63.3-33.3,94.9-50
			c50.4-26.6,100.9-53.2,151.3-79.8c11.6-6.1,23.2-12.3,34.9-18.4c-6.7,0-13.5,0-20.2,0c31.6,16.7,63.3,33.3,94.9,50
			c50.4,26.6,100.9,53.2,151.3,79.8c11.6,6.1,23.2,12.3,34.9,18.4c7.2,3.8,15.7,3.5,22.2-1.6c6.8-5.3,8.4-12.8,7.2-21
			c-5.7-36.4-11.4-72.8-17-109.2c-9-57.8-18-115.6-27-173.4c-2.1-13.2-4.1-26.5-6.2-39.7c-1.7,6.5-3.4,13-5.1,19.5
			c26-25.7,52-51.3,78-77c41.4-40.9,82.9-81.8,124.3-122.8c9.5-9.4,19-18.8,28.5-28.2c9.8-9.7,6.4-31-8.8-33.4
			c-35.3-5.7-70.6-11.4-105.9-17c-56.3-9.1-112.6-18.1-168.9-27.2c-13-2.1-25.9-4.2-38.9-6.3c4,3.1,8,6.1,12,9.2
			c-16.6-33.2-33.3-66.3-49.9-99.5c-26.6-52.9-53.1-105.8-79.7-158.7c-6.1-12.2-12.2-24.4-18.4-36.6c-4.7-9.4-18.7-12.8-27.4-7.2
			c-9.6,6.2-12.2,17.3-7.2,27.4c16.4,32.6,32.7,65.2,49.1,97.8c26.3,52.4,52.6,104.8,78.9,157.2c6.4,12.8,12.6,25.8,19.3,38.4
			c6.4,12.1,20.6,11.7,32.4,13.6c53.7,8.6,107.4,17.3,161.1,25.9c43.5,7,87.1,14,130.6,21c0.7,0.1,1.4,0.2,2.1,0.3
			c-2.9-11.1-5.9-22.3-8.8-33.4c-26.4,26.1-52.9,52.2-79.3,78.4c-41.5,40.9-82.9,81.9-124.4,122.8c-8.9,8.8-18.3,17.4-26.9,26.6
			c-7.1,7.5-5.9,15.8-4.6,24.6c1.1,6.7,2.1,13.5,3.2,20.2c8.6,55.2,17.2,110.3,25.8,165.5c6.7,43.2,13.5,86.4,20.2,129.7
			c0.1,0.7,0.2,1.4,0.3,2.1c9.8-7.5,19.6-15.1,29.4-22.6c-31.9-16.8-63.8-33.6-95.7-50.5c-50.6-26.7-101.1-53.3-151.7-80
			c-11.1-5.9-22.1-12-33.4-17.6c-7.2-3.6-13.7-3.5-20.9,0c-1.2,0.6-2.4,1.3-3.6,1.9c-5.7,3-11.4,6-17.1,9
			c-48.2,25.4-96.4,50.8-144.5,76.2c-37.9,20-75.7,39.9-113.6,59.9c-0.6,0.3-1.3,0.7-1.9,1c9.8,7.5,19.6,15.1,29.4,22.6
			c5.7-36.6,11.4-73.1,17.1-109.7c9-57.8,18-115.5,27-173.3c2-13,4.1-25.9,6.1-38.9c1.1-7.7,0.3-14.2-5.3-20.2
			c-0.9-1-1.9-1.8-2.8-2.8c-4.7-4.6-9.3-9.2-14-13.8c-39.5-39-79-78-118.5-117.1c-31.2-30.9-62.5-61.7-93.7-92.6
			c-0.5-0.5-1-1-1.5-1.5c-2.9,11.1-5.9,22.3-8.8,33.4c36.9-5.9,73.7-11.9,110.6-17.8c56.7-9.1,113.4-18.2,170-27.4
			c10.9-1.8,22.3-2.7,33-5.3c9-2.1,11.8-8.8,15.3-15.8c3.3-6.5,6.6-13.1,9.9-19.6c25.2-50.3,50.5-100.6,75.7-150.9
			c19.4-38.6,38.7-77.2,58.1-115.8c0.3-0.6,0.6-1.2,0.9-1.8c4.7-9.3,2.8-22.1-7.2-27.4C513,42.2,499.7,44.2,494.7,54.2z"/></svg>