<svg xmlns="http://www.w3.org/2000/svg" width="100" height="100" enable-background="new 0 0 100 100" viewBox="0 0 100 100"><path fill="#DADEE0" d="M83.999,83.5c0,3.299-2.701,5.999-6,5.999h-45c-3.299,0-6-2.7-6-5.999v-56c0-3.301,2.701-6,6-6h45.002
		c3.3,0,6,2.7,6,6L83.999,83.5"/><path fill="#1BB7EA" d="M26.999,27.5c0-3.301,2.701-6,6-6h40.002v-5c0-3.3-2.7-6-6-6H21.999c-3.299,0-6,2.7-6,6v56
		c0,3.299,2.701,5.999,6,5.999h5V27.5z"/><path fill="#A4ABB1" d="M41.001 45.992h29.998c.828 0 1.5-.672 1.5-1.5 0-.829-.672-1.5-1.5-1.5H41.001c-.828 0-1.5.671-1.5 1.5C39.501 45.32 40.173 45.992 41.001 45.992M41.001 35.992h29.998c.828 0 1.5-.672 1.5-1.5 0-.829-.672-1.5-1.5-1.5H41.001c-.828 0-1.5.671-1.5 1.5C39.501 35.32 40.173 35.992 41.001 35.992M41.001 55.992h29.998c.828 0 1.5-.672 1.5-1.5 0-.829-.672-1.5-1.5-1.5H41.001c-.828 0-1.5.671-1.5 1.5C39.501 55.32 40.173 55.992 41.001 55.992"/><path fill="#1BB7EA" d="M53.769,72.81c0.145-0.583,0.23-1.189,0.23-1.817c0-4.143-3.358-7.5-7.5-7.5s-7.5,3.357-7.5,7.5
		s3.358,7.5,7.5,7.5c0.628,0,1.234-0.085,1.816-0.231l-1.816-7.269L53.769,72.81z"/><path fill="#1F4254" d="M53.769,72.81l-7.27-1.817l1.816,7.269C50.995,77.593,53.1,75.489,53.769,72.81z"/><path fill="#C7CED2" d="M73.071,67.447c0.264,0.27,0.428,0.638,0.428,1.045v9c0,0.828-0.672,1.5-1.5,1.5s-1.5-0.672-1.5-1.5v-5.618
		l-7.404-7.405v0.004c0.249,0.268,0.404,0.624,0.404,1.019v12c0,0.828-0.672,1.5-1.5,1.5s-1.5-0.672-1.5-1.5v-3.039l-8.156-8.156
		c1.034,1.285,1.656,2.917,1.656,4.695c0,0.628-0.086,1.234-0.23,1.817c-0.669,2.68-2.773,4.784-5.453,5.452
		c-0.582,0.146-1.188,0.231-1.816,0.231c-1.807,0-3.465-0.64-4.76-1.704L54.45,89.5h23.549c3.299,0,6-2.7,6-5.999v-5.126
		L73.071,67.447z"/><path fill="#1F4254" d="M65.499 71.493v6c0 .828.672 1.5 1.5 1.5s1.5-.672 1.5-1.5v-6c0-.829-.672-1.5-1.5-1.5S65.499 70.664 65.499 71.493M60.499 65.493v12c0 .828.672 1.5 1.5 1.5s1.5-.672 1.5-1.5v-12c0-.829-.672-1.5-1.5-1.5S60.499 64.664 60.499 65.493M70.499 68.493v9c0 .828.672 1.5 1.5 1.5s1.5-.672 1.5-1.5v-9c0-.829-.672-1.5-1.5-1.5S70.499 67.664 70.499 68.493"/></svg>