<svg xmlns="http://www.w3.org/2000/svg" id="Layer_1" x="0" y="0" enable-background="new 0 0 32 32" version="1.1" viewBox="0 0 32 32" xml:space="preserve"><path id="path5" fill="#000" stroke="none" d="M 16 3 C 13.828 3 12.062766 4.7423437 12.009766 6.9023438 C 12.008766 6.9053438 12.010766 6.9071562 12.009766 6.9101562 C 12.008766 6.9411562 12 6.969 12 7 C 12 7.018 12.007766 7.0327814 12.009766 7.0507812 C 12.011766 7.0677813 12.006766 7.0845625 12.009766 7.1015625 L 13.884766 16.009766 C 12.826766 16.060766 11.980469 16.929047 11.980469 17.998047 C 11.980469 18.733047 12.383563 19.37075 12.976562 19.71875 C 12.869563 20.44175 12.252 21 11.5 21 L 9.5 21 C 8.122 21 7 22.121 7 23.5 L 7 26.5 C 7 26.776 7.224 27 7.5 27 L 8 27 L 8 28.5 C 8 28.776 8.224 29 8.5 29 L 23.5 29 C 23.776 29 24 28.776 24 28.5 L 24 27 L 24.5 27 C 24.776 27 25 26.776 25 26.5 L 25 23.5 C 25 22.121 23.878 21 22.5 21 L 20.5 21 C 19.742 21 19.119531 20.432172 19.019531 19.701172 C 19.593531 19.349172 19.982422 18.721 19.982422 18 C 19.982422 16.942 19.154281 16.082672 18.113281 16.013672 L 19.988281 7.1015625 C 19.992281 7.0835625 19.987281 7.0677814 19.988281 7.0507812 C 19.991281 7.0327813 20 7.018 20 7 C 20 6.969 19.991234 6.9411562 19.990234 6.9101562 C 19.990234 6.9071562 19.991234 6.9053438 19.990234 6.9023438 C 19.937234 4.7423437 18.172 3 16 3 z M 16 4 C 17.642 4 18.977094 5.3268438 18.996094 6.9648438 L 17.09375 16 L 14.90625 16 L 13.003906 6.9648438 C 13.022906 5.3268438 14.358 4 16 4 z M 13.982422 17 L 14.5 17 L 17.5 17 L 17.982422 17 C 18.533422 17 18.982422 17.448 18.982422 18 C 18.982422 18.552 18.533422 19 17.982422 19 L 13.982422 19 C 13.431422 19 12.982422 18.552 12.982422 18 C 12.982422 17.448 13.431422 17 13.982422 17 z M 18.050781 19.992188 C 18.125781 20.366187 18.290672 20.706 18.513672 21 L 13.488281 21 C 13.709281 20.707 13.873219 20.369094 13.949219 19.996094 C 13.960219 19.996094 13.971422 20 13.982422 20 L 17.982422 20 C 18.005422 20 18.027781 19.993188 18.050781 19.992188 z M 9.5 22 L 11.5 22 L 20.5 22 L 22.5 22 C 23.327 22 24 22.673 24 23.5 L 24 26 L 23.5 26 L 8.5 26 L 8 26 L 8 23.5 C 8 22.673 8.673 22 9.5 22 z M 9 27 L 23 27 L 23 28 L 9 28 L 9 27 z "/></svg>