<svg xmlns="http://www.w3.org/2000/svg" data-name="Layer 1" viewBox="0 0 64 64"><circle cx="32" cy="32" r="27" fill="#be1e2d"/><path fill="#2a292a" d="M48.75,53.16a26.94,26.94,0,0,1-33.5,0L16,50.5A9.12,9.12,0,0,1,24.79,44H39.21A9.12,9.12,0,0,1,48,50.5Z"/><path fill="#ffd2b4" d="M36,39v5.76a2,2,0,0,1-1.11,1.8h0a6.46,6.46,0,0,1-5.78,0h0A2,2,0,0,1,28,44.76V39Z"/><path fill="#ffd2b4" d="M32,15.21C43.45,15.21,42.47,26,42.47,26c1.68-.17,3,.49,3,2.86s-1,2.86-2.35,3a.29.29,0,0,0-.27.27c-.39,3.69-3,6.39-5.58,8.2a9.16,9.16,0,0,1-10.56,0c-2.57-1.81-5.19-4.52-5.58-8.2a.29.29,0,0,0-.27-.27c-1.31-.13-2.35-.63-2.35-3s1.27-3,2.94-2.86C21.47,26,20.54,15.21,32,15.21Z"/><path fill="#262234" d="M36,41.08v1.5a9.16,9.16,0,0,1-8,0v-1.5a9.16,9.16,0,0,0,8,0Z" opacity=".1"/><circle cx="28.04" cy="28.15" r="1.7" fill="#2a292a"/><circle cx="35.96" cy="28.15" r="1.7" fill="#2a292a"/><path fill="#611c24" d="M35.87,32.53a1,1,0,0,1,1,1.25,5,5,0,0,1-9.68,0,1,1,0,0,1,1-1.25Z"/><path fill="#be1e2d" d="M34.42,36.91a5,5,0,0,1-4.84,0c.2-1.23,1.21-1.57,2.42-1.57S34.22,35.68,34.42,36.91Z"/><path fill="#fff" d="M34.87,32.53v.95a.37.37,0,0,1-.36.37h-5a.37.37,0,0,1-.36-.37v-.95Z"/><path fill="#ffa517" d="M32,13.63c-8.83,0-11.31,6.71-11.31,12.72A9.56,9.56,0,0,0,21,28.47c.18.72,2.07.69,2.19,0a16.75,16.75,0,0,1,1.11-6.85A1,1,0,0,1,25.34,21c2.24.33,9.12,1.18,13.27.12a1,1,0,0,1,1.2.6,16.94,16.94,0,0,1,1.06,6.75c.11.64,2,.67,2.19,0a9.56,9.56,0,0,0,.26-2.12C43.31,20.33,40.84,13.63,32,13.63Z"/><path fill="#d1d3d4" d="M36.69,47.24V58.59a27,27,0,0,1-9.38,0V47.24Z"/><path fill="#be1e2d" d="M33.49,50.86h-3a.5.5,0,0,1-.48-.37l-.72-2.62a.5.5,0,0,1,.48-.63h4.42a.5.5,0,0,1,.48.63L34,50.49A.5.5,0,0,1,33.49,50.86Z"/><path fill="#be1e2d" d="M34.32,58.9c-.77.07-1.54.1-2.32.1s-1.55,0-2.32-.1l1.65-9.09h1.34Z"/><polygon fill="#f1f2f2" points="32 47.24 28.34 51.28 26.18 44 28 42.12 32 47.24"/><polygon fill="#f1f2f2" points="32 47.24 35.66 51.28 37.82 44 36 42.12 32 47.24"/><path fill="#2a292a" d="M43.18,15.69H20.82v7.08a.4.4,0,0,0,.28.38h0a36.67,36.67,0,0,0,21.79,0h0a.4.4,0,0,0,.28-.38Z"/><path fill="#3b3c3d" d="M43.18,15.69v3.18l-9.73,2.06a7.08,7.08,0,0,1-2.9,0l-9.73-2.06V15.69Z" opacity=".5"/><path fill="#2a292a" d="M30.55 11.5L16.92 14.38a1.13 1.13 0 0 0 0 2.2l13.63 2.89a7 7 0 0 0 2.9 0l13.63-2.89a1.13 1.13 0 0 0 0-2.2L33.45 11.5A7 7 0 0 0 30.55 11.5zM31 59a25.69 25.69 0 0 1-6.83-1.13L24.25 44a1 1 0 0 1 .83-1l2.43-.43zM39.83 57.84A25.69 25.69 0 0 1 33 59l3.5-16.33 2.43.43a1 1 0 0 1 .83 1z"/><rect width="1.16" height="7.6" x="46.25" y="15.59" fill="#2a292a"/><path fill="#ffa517" d="M47.89,24.73H45.77a.41.41,0,0,1-.38-.57l.86-2.1h1.16l.86,2.1A.41.41,0,0,1,47.89,24.73Z"/><rect width="2.11" height=".69" x="45.78" y="21.82" fill="#2a292a" rx=".35" ry=".35"/></svg>