<svg xmlns="http://www.w3.org/2000/svg" width="512" height="512" enable-background="new 0 0 512 512" viewBox="0 0 512 512"><path d="M256.436,493.669c-1.256,0-2.512-0.328-3.634-0.984c-37.454-21.896-69.529-50.72-95.333-85.674
				c-22.906-31.026-41.517-67.78-55.314-109.241C73.182,211.646,69.466,119.729,69.466,49.273c0-2.521,1.319-4.859,3.477-6.163
				c2.16-1.306,4.841-1.385,7.073-0.213c1.664,0.874,6.113,2.339,17.229,2.34c0.002,0,0.005,0,0.007,0
				c32.014,0,89.559-11.932,127.639-19.828c12.558-2.604,23.403-4.853,30.331-6.038c0.805-0.138,1.629-0.138,2.435,0.001
				c7.707,1.325,19.387,3.848,32.912,6.768c36.174,7.813,90.841,19.617,122.774,19.617c11.683,0,17.095-1.555,19.578-2.859
				c2.234-1.172,4.921-1.092,7.081,0.217c2.159,1.309,3.476,3.652,3.469,6.177c-0.172,70.907-4.044,163.231-32.693,248.498
				c-13.791,41.442-32.405,78.197-55.32,109.223c-25.815,34.954-57.908,63.779-95.389,85.674
				C258.947,493.342,257.691,493.669,256.436,493.669z M83.893,58.781c0.354,67.988,4.884,154.05,31.919,234.418
				c27.658,83.105,74.955,145.281,140.625,184.894c65.712-39.61,113.031-101.785,140.681-184.871
				c26.711-79.498,31.382-165.824,31.901-234.221c-4.411,0.776-9.614,1.159-15.677,1.159c-33.471,0-86.844-11.525-125.815-19.941
				c-12.653-2.732-23.672-5.112-31.095-6.438c-6.727,1.193-16.922,3.308-28.618,5.732c-38.653,8.015-97.07,20.127-130.563,20.127
				c-0.004,0-0.003,0-0.008,0C92.122,59.64,87.687,59.356,83.893,58.781z"/></svg>