<svg xmlns="http://www.w3.org/2000/svg" width="512" height="512" fill-rule="evenodd" clip-rule="evenodd" image-rendering="optimizeQuality" shape-rendering="geometricPrecision" text-rendering="geometricPrecision" viewBox="0 0 512 512"><defs><linearGradient id="a" x1="254.85" x2="254.86" y1="307.42" y2="414.05" gradientUnits="userSpaceOnUse"><stop offset="0" stop-color="#f6eb00"/><stop offset="1" stop-color="#fddd00"/></linearGradient></defs><path fill="url(#a)" d="M75.33 172.79c3.17,-3.17 8.36,-3.17 11.53,0l46.09 46.09c3.17,3.17 3.17,8.35 0,11.52 -3.17,3.17 -8.36,3.17 -11.53,0l-46.09 -46.09c-3.17,-3.17 -3.17,-8.35 0,-11.52zm329.65 180.66c0,15.43 -2.35,30.3 -6.71,44.3l85.64 0c4.48,0 8.14,3.67 8.14,8.15 0,5.2 -2.94,8.15 -8.14,8.15l-455.82 0c-5.28,0 -8.15,-3.03 -8.15,-8.15 0,-4.48 3.67,-8.15 8.15,-8.15l85.64 0c-4.36,-14 -6.71,-28.87 -6.71,-44.3 0,-82.28 66.7,-148.98 148.98,-148.98 82.28,0 148.98,66.7 148.98,148.98zm-148.98 -255.5c4.48,0 8.15,3.67 8.15,8.15l0 65.18c0,4.49 -3.67,8.15 -8.15,8.15 -4.48,0 -8.15,-3.66 -8.15,-8.15l0 -65.18c0,-4.48 3.67,-8.15 8.15,-8.15zm-255.5 255.51c0,-4.49 3.66,-8.16 8.15,-8.16l65.18 0c4.48,0 8.15,3.67 8.15,8.15 0,4.49 -3.67,8.15 -8.15,8.15l-65.18 0c-4.48,0 -8.15,-3.66 -8.15,-8.14zm378.55 -123.06c-3.17,-3.17 -3.17,-8.35 0,-11.52l46.09 -46.09c3.17,-3.17 8.36,-3.17 11.53,0 3.17,3.17 3.17,8.35 0,11.52l-46.09 46.09c-3.17,3.17 -8.36,3.17 -11.53,0zm50.97 123.06c0,-4.49 3.67,-8.16 8.15,-8.16l65.18 0c4.48,0 8.15,3.67 8.15,8.15 0,4.49 -3.66,8.15 -8.15,8.15l-65.18 0c-4.48,0 -8.15,-3.66 -8.15,-8.14z"/></svg>