<svg xmlns="http://www.w3.org/2000/svg" data-name="Layer 1" viewBox="0 0 130 130"><path fill="#ffb100" d="M65,28.44A37.58,37.58,0,0,0,30.88,81.79,22.68,22.68,0,0,0,40,83.68a22.17,22.17,0,0,0,12.5-3.76,22.66,22.66,0,0,1,25,0A22.12,22.12,0,0,0,90,83.68a22.73,22.73,0,0,0,9.13-1.89A37.6,37.6,0,0,0,65,28.44Z"/><path fill="#ef9f00" d="M28.11 73.3a34.31 34.31 0 0 0 18.07 9.55 23.41 23.41 0 0 1-6.17.83 22.76 22.76 0 0 1-9.13-1.89A37.19 37.19 0 0 1 28.11 73.3zM102.59 66a37.42 37.42 0 0 1-3.46 15.76A22.78 22.78 0 0 1 90 83.68 22.14 22.14 0 0 1 77.5 79.92a20.5 20.5 0 0 0-5-2.52A32.09 32.09 0 0 0 86.7 50.9a31.54 31.54 0 0 0-6.61-19.3A37.58 37.58 0 0 1 102.59 66zM107.13 47l8.79-2-7.64 4.79a1.52 1.52 0 1 1-1.62-2.57A1.48 1.48 0 0 1 107.13 47zM63.5 19.81L65 6.43l1.5 13.38a1.51 1.51 0 0 1-3 .34A1.93 1.93 0 0 1 63.5 19.81zM111.22 64.54L124.61 66l-13.39 1.5a1.51 1.51 0 1 1-.33-3A1.22 1.22 0 0 1 111.22 64.54zM18.78 67.54L5.39 66l13.39-1.5a1.51 1.51 0 1 1 .33 3zM96.62 32.29l10.53-8.4L98.74 34.41a1.51 1.51 0 1 1-2.36-1.88A1.81 1.81 0 0 1 96.62 32.29zM31.25 34.41l-8.4-10.52 10.53 8.4a1.51 1.51 0 0 1-1.89 2.36A1.36 1.36 0 0 1 31.25 34.41zM45.93 23.91l-2-8.79 4.79 7.64a1.52 1.52 0 1 1-2.58 1.61A1.32 1.32 0 0 1 45.93 23.91zM81.3 22.76l4.79-7.64-2 8.79a1.52 1.52 0 1 1-3-.68A1.78 1.78 0 0 1 81.3 22.76zM21.72 49.73l-7.64-4.79 8.79 2a1.52 1.52 0 1 1-1.15 2.77z"/><circle cx="54.14" cy="53.77" r="13.59" fill="#fff" opacity=".25" transform="rotate(-22.5 54.134 53.78)"/><path fill="#0baeff" d="M40 98a23.68 23.68 0 0 1-13.35-4 21 21 0 0 0-23.3 0 1.5 1.5 0 1 1-1.7-2.47 24.06 24.06 0 0 1 26.7 0 21 21 0 0 0 23.3 0A24 24 0 0 1 70.11 88a1.5 1.5 0 0 1-.63 2.94 20.92 20.92 0 0 0-16.13 3A23.68 23.68 0 0 1 40 98zM90 98a23.68 23.68 0 0 1-13.35-4 1.5 1.5 0 1 1 1.7-2.47 21.05 21.05 0 0 0 23.3 0 1.5 1.5 0 1 1 1.7 2.47A23.68 23.68 0 0 1 90 98zM127.5 94.21a1.49 1.49 0 0 1-.85-.26 21 21 0 0 0-17.75-2.62 1.5 1.5 0 1 1-.85-2.88 24.15 24.15 0 0 1 20.3 3 1.51 1.51 0 0 1 .39 2.08A1.48 1.48 0 0 1 127.5 94.21zM36.15 110.45l-.25 0a23.33 23.33 0 0 1-9.25-3.69 21.05 21.05 0 0 0-23.3 0 1.5 1.5 0 1 1-1.7-2.47 24.1 24.1 0 0 1 26.7 0 20.25 20.25 0 0 0 8 3.2 1.5 1.5 0 0 1-.25 3zM86.7 110.54l-.21 0a23.28 23.28 0 0 1-9.84-3.78 21.05 21.05 0 0 0-23.3 0 22.79 22.79 0 0 1-7.84 3.41 1.5 1.5 0 1 1-.67-2.92 20 20 0 0 0 6.81-3 24.1 24.1 0 0 1 26.7 0 20.32 20.32 0 0 0 8.56 3.28 1.5 1.5 0 0 1-.21 3zM96.72 109.77a1.5 1.5 0 0 1-.43-2.93 19.8 19.8 0 0 0 5.36-2.57 24.1 24.1 0 0 1 26.7 0 1.5 1.5 0 1 1-1.7 2.47 21.05 21.05 0 0 0-23.3 0 22.82 22.82 0 0 1-6.19 3A1.61 1.61 0 0 1 96.72 109.77zM40 123.57a23.67 23.67 0 0 1-13.35-4 21 21 0 0 0-23.3 0 1.5 1.5 0 1 1-1.7-2.48 24.1 24.1 0 0 1 26.7 0 21 21 0 0 0 23.3 0 24.12 24.12 0 0 1 17.49-3.68 1.5 1.5 0 0 1-.51 3 21 21 0 0 0-15.28 3.2A23.67 23.67 0 0 1 40 123.57zM90 123.57a23.67 23.67 0 0 1-13.35-4 1.5 1.5 0 1 1 1.7-2.48 21 21 0 0 0 23.3 0 24.1 24.1 0 0 1 26.7 0 1.5 1.5 0 1 1-1.7 2.48 21 21 0 0 0-23.3 0A23.67 23.67 0 0 1 90 123.57zM128.35 78.68a24.1 24.1 0 0 0-26.7 0c-.39.26-.79.5-1.2.74A10.3 10.3 0 0 0 98 80.64a21.46 21.46 0 0 1-8 1.54 20.68 20.68 0 0 1-11.64-3.5 24.16 24.16 0 0 0-26.69 0A20.79 20.79 0 0 1 40 82.18a21.41 21.41 0 0 1-8-1.54c0-.11-2.65-1.27-3.66-2a23.85 23.85 0 0 0-13.35-4 23.82 23.82 0 0 0-13.34 4 1.5 1.5 0 0 0 1.7 2.48A20.7 20.7 0 0 1 15 77.66a20.79 20.79 0 0 1 11.66 3.5 22.09 22.09 0 0 0 3.09 1.74l0 0 .51.23h0a24.39 24.39 0 0 0 9.71 2 23.85 23.85 0 0 0 13.35-4 21.14 21.14 0 0 1 23.3 0 23.79 23.79 0 0 0 13.34 4 24.37 24.37 0 0 0 9.74-2l.52-.23v0a23.24 23.24 0 0 0 3.08-1.74 21 21 0 0 1 23.31 0 1.5 1.5 0 1 0 1.7-2.48z"/></svg>