<svg xmlns="http://www.w3.org/2000/svg" viewBox="0 0 1010 1010"><path fill="#3BAFDA" d="M1010 505c0 278.914-226.096 505-505 505S0 783.914 0 505C0 226.106 226.096 0 505 0s505 226.106 505 505z"/><path fill="#FC6E51" d="M722.505 514.606L434.21 802.871 193.38 562.03l281.31-284.496"/><path fill="#454545" d="M434.211 812.97c-2.584 0-5.168-.986-7.14-2.958L186.237 569.17c-3.93-3.925-3.945-10.287-.039-14.242l281.31-284.496c3.912-3.976 10.313-4.015 14.283-.08 3.965 3.916 4.004 10.317.079 14.283L207.622 561.99l226.59 226.599 281.152-281.123a10.097 10.097 0 0 1 14.282 0 10.097 10.097 0 0 1 0 14.282L441.353 810.012a10.068 10.068 0 0 1-7.142 2.959z"/><path fill="#FFF" d="M474.69 277.533h247.697l.118 237.38"/><path fill="#454545" d="M722.505 525.013c-5.572 0-10.1-4.518-10.1-10.091l-.108-227.29H474.69c-5.578 0-10.1-4.517-10.1-10.099 0-5.583 4.522-10.1 10.1-10.1h257.787l.128 247.47c0 5.582-4.517 10.11-10.09 10.11h-.01z"/><path fill="#3BAFDA" d="M661.61 383.248c0 22.784-18.464 41.268-41.268 41.268-22.834 0-41.308-18.464-41.328-41.289.02-22.784 18.494-41.267 41.328-41.267 22.803 0 41.267 18.474 41.267 41.288z"/><path fill="#454545" d="M620.342 434.615c-28.333 0-51.403-23.05-51.428-51.377.025-28.338 23.095-51.378 51.428-51.378 28.322 0 51.367 23.05 51.367 51.388 0 28.327-23.045 51.367-51.367 51.367zm0-82.555c-17.202 0-31.213 13.986-31.228 31.178.015 17.181 14.026 31.177 31.228 31.177 17.186 0 31.168-13.985 31.168-31.167 0-17.202-13.982-31.188-31.168-31.188z"/><path fill="#454545" d="M613.023 400.627c-2.584 0-5.168-.986-7.141-2.959a10.097 10.097 0 010-14.282l145.957-145.948a10.097 10.097 0 0114.282 0 10.097 10.097 0 010 14.283L620.164 397.668a10.068 10.068 0 01-7.141 2.959zM426.942 718.086c-2.584 0-5.169-.986-7.141-2.959a10.095 10.095 0 010-14.281l182.451-182.452a10.097 10.097 0 0114.282 0 10.095 10.095 0 010 14.282L434.083 715.127a10.067 10.067 0 01-7.14 2.959zM339.366 630.52c-2.584 0-5.168-.987-7.14-2.96a10.095 10.095 0 010-14.28l182.45-182.442a10.097 10.097 0 0114.282 0 10.097 10.097 0 010 14.282L346.507 627.56a10.066 10.066 0 01-7.14 2.96zM382.627 673.78c-2.585 0-5.169-.986-7.142-2.959a10.096 10.096 0 010-14.282l182.452-182.43a10.096 10.096 0 0114.281 0 10.097 10.097 0 010 14.282l-182.45 182.43a10.068 10.068 0 01-7.141 2.96zM295.543 586.747c-2.584 0-5.168-.986-7.14-2.959a10.097 10.097 0 010-14.282l182.47-182.461a10.097 10.097 0 0114.282 0 10.097 10.097 0 010 14.282l-182.47 182.461a10.067 10.067 0 01-7.142 2.96z"/></svg>