<svg xmlns="http://www.w3.org/2000/svg" xmlns:xlink="http://www.w3.org/1999/xlink" enable-background="new 0 0 72 72" viewBox="0 0 72 72"><path fill="#2A96AE" d="M71,36c0,19.2986-15.6274,35-35,35C16.6237,71,1,55.2955,1,36C1,16.67,16.6699,1,36,1
		C55.33,1,71,16.67,71,36z"/><defs><path id="a" d="M71,36c0,19.2986-15.6274,35-35,35C16.6237,71,1,55.2955,1,36C1,16.67,16.6699,1,36,1
				C55.33,1,71,16.67,71,36z"/></defs><clipPath id="b"><use overflow="visible" xlink:href="#a"/></clipPath><g clip-path="url(#b)"><path fill="#FAB687" d="M32.1055,16.5588c0,0-11.0359,2.5-11.2679,2.5625s1.1554,12.1875,1.1554,12.1875l13.7555-6.0125
					L32.1055,16.5588z"/><path fill="#445A6B" d="M67.7159,71.11H4.1183c0-9.1633,6.2478-17.1068,15.0838-19.3084
					c0.1686-0.0496,0.3471-0.0893,0.5256-0.1289c0.4066-0.0892,0.8132-0.1785,1.2297-0.2678
					c0.5553-0.1091,1.1008-0.2082,1.6561-0.3074c0.4165-0.0793,0.8331-0.1487,1.2496-0.2181
					c0.0396-0.0099,0.0892-0.0099,0.1289-0.0199c3.9569-0.6347,7.9336-0.952,11.9202-0.952c3.9965,0,7.9732,0.3173,11.9301,0.952
					c0.0396,0.0099,0.0893,0.0099,0.1289,0.0199c0.3074,0.0496,0.6049,0.0991,0.9123,0.1586
					c0.6645,0.119,1.3289,0.238,1.9933,0.3769c0.4066,0.0794,0.8132,0.1686,1.2198,0.2579h0.0099
					c0.1785,0.0396,0.357,0.0794,0.5256,0.1289C61.4682,54.0032,67.7159,61.9467,67.7159,71.11z"/><path fill="#FAB687" d="M47.9712,50.8793c-3.9966-0.6446-8.0228-0.9718-12.059-0.9718c-4.0264,0-8.0527,0.3272-12.0491,0.9718
					c-0.4165,0.0695-0.8331,0.1389-1.2496,0.2182c1.8743,3.6098,4.3536,6.922,6.8626,10.0261
					c0.2281,0.2828,0.4572,0.5533,0.6856,0.8295c1.2426,0.519,2.3537,1.3479,3.3658,2.2262
					c0.5362,0.4653,1.0353,0.971,1.5528,1.4566c0.2535,0.2378,0.5177,0.4617,0.7737,0.6963
					c-0.4547-0.4166-0.2547-0.2089,0.0658,0.0094c1.9273-1.3959,3.7872-2.904,5.6351-4.494
					c3.5206-3.0346,6.3568-6.2874,7.3287-10.8096C48.5762,50.9785,48.2787,50.9289,47.9712,50.8793z"/><path fill="#D2DBE0" d="M50.8769,51.4149c-3.7585,7.8047-8.5683,13.1202-14.3201,15.8375l-0.6347,0.2975l-0.6346-0.2975
						c-5.7618-2.7172-10.5815-8.0427-14.3301-15.8474c0.5553-0.1091,1.1008-0.2082,1.6561-0.3074
						c0.4165-0.0793,0.8331-0.1487,1.2496-0.2181c0.0396-0.0099,0.0892-0.0099,0.1289-0.0199
						c3.2527,6.4758,7.2592,10.9682,11.9301,13.3879c4.661-2.4198,8.6675-6.9121,11.9202-13.3879
						c0.0396,0.0099,0.0893,0.0099,0.1289,0.0199c0.3074,0.0496,0.6049,0.0991,0.9123,0.1586
						C49.5481,51.157,50.2125,51.276,50.8769,51.4149z"/><path fill="#FAB687" d="M42.1279,40.7185v8.9402c0,3.6493-2.6972,6.6063-6.0258,6.6063h-0.3698
					c-3.3286,0-6.0259-2.957-6.0259-6.6063v-8.9402H42.1279z"/><path fill="#E59865" d="M35.9409,49.0408L35.9409,49.0408c-3.1743,0-5.8849-1.9101-6.1637-4.4304
					c-0.047-0.4252-0.0709-0.8542-0.0709-1.2864c0-0.4291,0.0235-0.8547,0.0697-1.2762c0.2766-2.5207,2.989-4.4309,6.1636-4.4309
					h0.0013c3.4169,0,6.1869,2.2079,6.1869,4.9314v1.5612C42.1279,46.833,39.3579,49.0408,35.9409,49.0408z"/><path fill="#FAB687" d="M35.9171,10.2461c-22.8115,12.3127-12.9664,8.3667-12.9664,18.6876
					c0,10.3209,5.8053,18.6876,12.9664,18.6876c7.1612,0,12.9665-8.3667,12.9665-18.6876
					C48.8836,18.6128,42.2189,6.8446,35.9171,10.2461z"/><path fill="#663430" d="M50.3311,20.5099c-0.43,2.92-2.11,11.6201-2.11,11.6201V26.6c0-1.72-0.32-3.4399-1.09-4.97
					c-0.33-0.67-0.71-1.26-1.12-1.74c-0.86-1.02-1.86-1.6101-2.9301-1.6101c-0.6759,0-1.3215,0.2329-1.9222,0.6554
					c-0.6435,0.4526-1.3111,0.8737-2.0296,1.194l0,0c-2.3599,1.0523-5.0934,1.0148-7.3641-0.2181
					c-0.2563-0.1391-0.4524-0.2663-0.554-0.3713c-0.78-0.8099-1.68-1.26-2.63-1.26c-1.08,0-2.08,0.5901-2.93,1.6101
					c-1.67,1.98-2.78,5.58-2.78,9.7c0,1.03,0.06,0.37,0.2,1.3101c0.13,0.4099,0.2599,0.83,0.41,1.23
					c-7.2-13.22-1.63-19.0901,2.08-17.65c0-3.7001,3.87-6.8101,8.65-6.7001C39.1312,7.9,51.0511,15.5499,50.3311,20.5099z"/><circle cx="29.32" cy="31.238" r="1.75" fill="#3D2F46"/><circle cx="41.643" cy="31.238" r="1.75" fill="#3D2F46"/><ellipse cx="48.607" cy="31.412" fill="#FAB687" rx="3.02" ry="3.899"/><ellipse cx="22.495" cy="31.412" fill="#FAB687" rx="3.02" ry="3.899"/><path fill="#0F1619" d="M34.5712 29.0599c-.05-.27-.17-.53-.33-.77-.03-.04-.06-.08-.1-.12l-.01-.0099c-.39-.4801-.98-.76-1.61-.76h-7.61c-.13 0-.25.0299-.36.08-.13.0499-.25.14-.34.2599-.08.1001-.14.2201-.16.3401-.04.14-.04.28-.01.4199l.94 3.8c.4 1.65 1.86 2.8 3.56 2.8h1.59c1.54 0 2.93-.98 3.46-2.42l.9-2.46C34.6312 29.84 34.6511 29.4399 34.5712 29.0599zM33.7311 29.9399l-.9 2.4601c-.41 1.1299-1.49 1.8899-2.6999 1.8899h-1.59c-1.32 0-2.46-.8999-2.78-2.1799l-.91-3.72-.02-.0801.08-.11h7.61c.4301 0 .81.2001 1.06.5499C33.8212 29.11 33.8812 29.5399 33.7311 29.9399zM46.7512 27.7399c-.07-.0898-.16-.1699-.26-.22-.13-.08-.28-.1199-.44-.1199h-7.61c-.63 0-1.2.2699-1.59.73l-.01.01c-.04.0499-.08.0999-.12.1499-.17.23-.28.48-.33.76v.01c-.09.38-.0601.78.08 1.16l.9 2.46c.52 1.4401 1.91 2.42 3.45 2.42h1.6c1.69 0 3.16-1.15 3.56-2.8l.94-3.8c.02-.1099.03-.22.01-.33C46.9111 28.0199 46.8511 27.87 46.7512 27.7399zM45.2012 32.11c-.32 1.28-1.46 2.1799-2.78 2.1799h-1.6c-1.2 0-2.28-.76-2.7-1.8899l-.9-2.4601c-.14-.4-.09-.83.16-1.1801.24-.3599.63-.5599 1.06-.5599h7.61l.08.11L45.2012 32.11z"/><path fill="#0F1619" d="M36.7263 28.0589c-.3707-.2219-.8311-.3306-1.2726-.3071-.4429.0174-.8669.147-1.2252.3529-.1593.0909-.3002.1966-.435.3102.1416.2554.2355.5361.2932.8256.1884-.0797.379-.155.5595-.2124.291-.0881.571-.1417.8412-.1442.4481-.0156.8723.1288 1.3565.3505.0518-.3062.153-.6013.2974-.8724C37.0176 28.2471 36.8829 28.1413 36.7263 28.0589zM48.2211 26.4999v1.05c-.47.1101-.95.3301-1.29.62-.14.13-.28.27-.4.42-.15-.05-.27-.15-.34-.3-.12-.26-.02-.5699.22-.72l.08-.05L48.2211 26.4999zM24.9412 28.2c-.01.0599-.04.11-.07.17 0 .01-.01.02-.02.02-.07.0999-.17.1699-.28.2-.16-.1899-.33-.36-.52-.51-.33-.25-.76-.46-1.17-.54 0-.37.02-.74.04-1.1l1.63 1.04.14.09C24.9111 27.71 25.0012 27.96 24.9412 28.2z"/><path fill="#663430" d="M39.8969,41.0129c-0.25,1.39-1.16,2.55-2.4,3.13c-0.56,0.28-1.19,0.43-1.86,0.43
					c-1.14,0-2.17-0.43-2.94-1.15c-0.69-0.62-1.16-1.47-1.34-2.41c-0.07-0.4,0.25-0.77,0.65-0.77h7.24
					C39.6469,40.2428,39.9669,40.6128,39.8969,41.0129z"/><path fill="#EF4F63" d="M37.4968,44.1429c-0.56,0.28-1.19,0.43-1.86,0.43c-1.14,0-2.17-0.43-2.94-1.15
				c0.54-0.39,1.26-0.63,2.07-0.63C35.9768,42.7928,37.0269,43.3429,37.4968,44.1429z"/></g></svg>