<svg xmlns="http://www.w3.org/2000/svg" viewBox="0 0 52 52"><g fill="none" stroke="#000" stroke-linecap="round" stroke-linejoin="round" stroke-miterlimit="10" stroke-width="2"><path d="M41.158 9.862c-6.39-5.625-15.655-7.478-24.032-3.965C5.442 10.798-.056 24.243 4.844 35.927s18.346 17.182 30.03 12.281c11.684-4.9 17.182-18.345 12.282-30.029a23.117 23.117 0 0 0-1.143-2.324"/><path d="M33.513 12.304l8.106-2.198L39.422 2M26 4.112v3.483M10.3 10.319l2.463 2.463M3.053 26h3.484M9.29 42.71l2.464-2.464M26 50v-3.484M42.71 42.71l-2.464-2.464M48.947 26h-3.484"/><circle cx="26" cy="27.056" r="3.196"/><path d="M26 23.865V12.782M22.805 27.06h-6.661"/></g></svg>