<svg xmlns="http://www.w3.org/2000/svg" viewBox="0 0 64 64"><path d="M32 .58A31.19 31.19 0 0 0 18 3.85a1 1 0 1 0 .9 1.79A29.14 29.14 0 0 1 32 2.58 29.43 29.43 0 0 1 56.45 48.37a1 1 0 0 0 .27 1.39 1.07 1.07 0 0 0 .56.17 1 1 0 0 0 .83-.44A31.43 31.43 0 0 0 32 .58zM54.17 51.34a28 28 0 0 1-2.83 2.83 1 1 0 0 0-.09 1.41 1 1 0 0 0 .75.34 1 1 0 0 0 .66-.24 31.88 31.88 0 0 0 3-3 1 1 0 0 0-1.51-1.32zM48.75 56.2A29.43 29.43 0 0 1 9.62 12.89a1 1 0 0 0-1.52-1.3A31.43 31.43 0 0 0 49.89 57.84a1 1 0 0 0 .25-1.39A1 1 0 0 0 48.75 56.2zM11.34 10.67A1 1 0 0 0 12 10.4c.41-.38.82-.74 1.25-1.09A1 1 0 1 0 12 7.77c-.46.37-.9.76-1.34 1.16a1 1 0 0 0 .68 1.74zM14.94 7.81a1 1 0 0 0 .56-.17l.25-.17A1 1 0 1 0 14.64 5.8L14.37 6a1 1 0 0 0-.26 1.39A1 1 0 0 0 14.94 7.81z"/><path d="M51.13 36.8l-.68-20.45a3.33 3.33 0 0 0-6.65 0l-.69 20.53C41 40.17 41.83 41.77 43 43.37a4.89 4.89 0 0 1 .83 1.42c.55 1.81-1.56 4-2.41 4.63a1 1 0 0 0 .49 1.78 11.63 11.63 0 0 0 1.65.11A9 9 0 0 0 51.13 36.8zM45.79 16.42a1.33 1.33 0 0 1 2.66 0l.66 19.75h-4zm4.42 29.05a6.83 6.83 0 0 1-5.84 3.81c1-1.27 2-3.12 1.4-5.07a6.48 6.48 0 0 0-1.14-2c-.82-1.09-1.31-1.8 0-4h5A6.88 6.88 0 0 1 50.21 45.47zM39.44 28.25a10.35 10.35 0 0 0-1.23-10.79 11.4 11.4 0 0 0-10.86-4.65 19.37 19.37 0 0 0 3 38.51 18.88 18.88 0 0 0 3.16-.26 4.32 4.32 0 0 0 3.29-2.51 4.53 4.53 0 0 0-.23-4.22 1.47 1.47 0 0 0-.23-.31c-5.13-4.79-2.79-7.73.17-11.45A24.68 24.68 0 0 0 39.44 28.25zm-4.6 17.13A2.58 2.58 0 0 1 35 47.72a2.38 2.38 0 0 1-1.8 1.37A17.37 17.37 0 0 1 20.41 17.71a17 17 0 0 1 7.25-2.92A8.75 8.75 0 0 1 29 14.68a9.52 9.52 0 0 1 7.6 4 8.36 8.36 0 0 1 1 8.73 22.31 22.31 0 0 1-2.72 3.95C31.91 35.11 28.5 39.38 34.84 45.38z"/><path d="M30.4 17.64a5 5 0 1 0-3.06 8.87q.32 0 .63 0a5 5 0 0 0 2.43-8.84zm-.71 5.73a2.94 2.94 0 0 1-2 1.12A3 3 0 0 1 25 19.74a2.87 2.87 0 0 1 2-1.12 2.31 2.31 0 0 1 .37 0 3 3 0 0 1 1.81.62 3 3 0 0 1 1.12 2A2.91 2.91 0 0 1 29.69 23.37zM20.25 33.35a4.53 4.53 0 0 0 .52 0 4.19 4.19 0 1 0-.52 0zM20 27l.27 0a2.17 2.17 0 0 1 .27 4.33 2.17 2.17 0 0 1-2.42-1.88A2.17 2.17 0 0 1 20 27zM24.7 38.14A3.76 3.76 0 1 0 21 42.37l.48 0A3.77 3.77 0 0 0 24.7 38.14zm-3.51 2.21a1.76 1.76 0 1 1-.44-3.49l.22 0a1.76 1.76 0 0 1 .22 3.51zM27.62 40.64a3.5 3.5 0 0 0-3 3.9A3.48 3.48 0 0 0 28 47.6l.45 0a3.5 3.5 0 0 0-.87-6.94zm.62 5a1.49 1.49 0 1 1-.37-3h.19a1.47 1.47 0 0 1 .91.31 1.5 1.5 0 0 1-.73 2.66z"/></svg>