<svg xmlns="http://www.w3.org/2000/svg" enable-background="new 0 0 50 50" viewBox="0 0 50 50"><path fill="#E3E7F0" d="M25.3139 28.3015L8.9991 37.7826c-.2885.1676-.6878.1443-1.1281-.1099-.8748-.505-1.5875-1.7346-1.5846-2.7399l16.3148-9.4811c-.0028 1.0053.7098 2.2349 1.5846 2.7399C24.6261 28.4458 25.0254 28.4691 25.3139 28.3015zM12.789 38.7836l16.3148-9.4811c-.0027.9547.6702 2.1154 1.497 2.5928l-16.3148 9.4811C13.4592 40.8991 12.7863 39.7384 12.789 38.7836z"/><polygon fill="#D3DBEA" points="3.236 11.688 19.55 2.206 19.52 12.896 3.205 22.377"/><polygon fill="#B4BED7" points="4.445 12.759 18.833 4.398 18.779 5.812 4.391 14.174"/><polygon fill="#B4BED7" points="4.445 15.765 18.833 7.404 18.779 8.818 4.391 17.18"/><polygon fill="#B4BED7" points="4.445 18.771 18.833 10.41 18.779 11.824 4.391 20.186"/><polygon fill="#E3E7F0" points="6.347 13.484 22.662 4.003 22.601 25.452 6.286 34.933"/><polygon fill="#D3DBEA" points="7.307 14.191 21.695 5.83 21.641 7.244 7.253 15.605"/><polygon fill="#D3DBEA" points="7.307 17.197 17.111 11.499 17.058 12.913 7.253 18.611"/><polygon fill="#D3DBEA" points="7.307 20.203 21.695 11.841 21.641 13.256 7.253 21.617"/><polygon fill="#D3DBEA" points="7.307 23.209 21.695 14.847 21.641 16.262 7.253 24.623"/><polygon fill="#D3DBEA" points="7.307 26.215 21.695 17.853 21.641 19.267 7.253 27.629"/><polygon fill="#D3DBEA" points="7.307 29.221 21.695 20.859 21.641 22.273 7.253 30.635"/><polygon fill="#D3DBEA" points="7.307 32.227 21.695 23.865 21.641 25.279 7.253 33.641"/><polygon fill="#D3DBEA" points="7.307 35.233 21.695 26.871 21.641 28.285 7.253 36.647"/><path fill="#D3DBEA" d="M3.6741,10.7246l16.3148-9.4811c-0.27,0.1569-0.4372,0.4904-0.4386,0.9629L3.2355,11.6876
			C3.2369,11.2151,3.4041,10.8815,3.6741,10.7246z"/><polygon fill="#E3E7F0" points="14.286 41.377 30.601 31.895 43.199 39.169 26.884 48.65"/><polygon fill="#D3DBEA" points="16.782 41.373 30.603 33.341 31.526 33.874 17.705 41.906"/><polygon fill="#D3DBEA" points="18.927 42.611 28.165 37.243 29.088 37.776 19.851 43.144"/><polygon fill="#D3DBEA" points="21.073 43.85 31.838 37.594 32.761 38.127 21.996 44.383"/><polygon fill="#D3DBEA" points="23.218 45.088 37.038 37.057 37.962 37.59 24.141 45.621"/><polygon fill="#D3DBEA" points="25.363 46.327 34.825 40.828 35.748 41.361 26.286 46.86"/><path fill="#E3E7F0" d="M22.6648 4.004L6.3484 13.4823c0-1.0197-.7195-2.271-1.6079-2.7842-.4442-.2563-.8508-.2814-1.1449-.1124L19.912 1.1074c.2878-.1689.6944-.1439 1.1449.1124C21.9453 1.7331 22.6648 2.9779 22.6648 4.004zM44.2681 39.2732l-16.3148 9.4811c-.2735.1589-.6521.1364-1.0687-.1042l16.3148-9.4811C43.6159 39.4096 43.9946 39.4321 44.2681 39.2732z"/><path fill="#D3DBEA" d="M44.347,39.4098L28.0322,48.891c0.2898-0.1684,0.4695-0.5263,0.471-1.0348L44.818,38.375
			C44.8165,38.8835,44.6368,39.2414,44.347,39.4098z"/><polygon fill="#D3DBEA" points="28.507 46.443 44.822 36.961 44.818 38.375 28.503 47.856"/><polygon fill="#B4BED7" points="28.395 46.378 44.71 36.897 44.822 36.961 28.507 46.443"/><path fill="#D3DBEA" d="M26.3873,10.7296c-0.2815,0.1628-0.4505,0.5068-0.4567,0.9947l-0.0438,15.6282
			c0,0.5318-0.1877,0.9073-0.4942,1.0823L9.0761,37.9194c0.3066-0.1815,0.4943-0.5569,0.5005-1.0884l0.0438-15.6221
			c0-0.4879,0.1752-0.8321,0.4505-0.9947L26.3873,10.7296z"/><polygon fill="#B4BED7" points="10.926 22.386 25.314 14.024 25.26 15.438 10.872 23.8"/><polygon fill="#B4BED7" points="10.926 25.392 25.314 17.03 25.26 18.444 10.872 26.806"/><polygon fill="#B4BED7" points="10.926 28.398 25.314 20.036 25.26 21.45 10.872 29.812"/><polygon fill="#B4BED7" points="10.926 31.403 25.314 23.042 25.26 24.456 10.872 32.818"/><polygon fill="#B4BED7" points="10.926 34.409 25.314 26.048 25.26 27.462 10.872 35.824"/><path fill="#B4BED7" d="M4.7427,10.7005c0.8868,0.512,1.6074,1.7601,1.6045,2.7836L6.2864,34.9328
			c-0.0028,1.0053,0.7098,2.2349,1.5846,2.7399c0.8748,0.5051,1.5881,0.0988,1.591-0.9065L9.5062,21.142
			c0.003-1.0556,0.7524-1.4827,1.6711-0.9523c0.9147,0.5281,1.6592,1.8177,1.6563,2.8733L12.789,38.7836
			c-0.0027,0.9547,0.6702,2.1154,1.497,2.5928l12.5984,7.2737c0.8268,0.4774,1.5041,0.0962,1.5068-0.8586l0.004-1.4137
			l0.1119,0.0646l-0.004,1.4137c-0.0029,1.0235-0.7282,1.437-1.619,0.9227l-12.5984-7.2737
			c-0.8868-0.512-1.6114-1.7627-1.6085-2.7861l0.0446-15.7205c0.0028-0.9821-0.69-2.1867-1.5448-2.6803
			s-1.5561-0.0938-1.5589,0.8884L9.5738,36.8308c-0.003,1.074-0.7685,1.5103-1.7032,0.9707
			c-0.9387-0.542-1.6951-1.8569-1.6921-2.9309l0.0608-21.4487c0.0027-0.95-0.6702-2.1154-1.497-2.5928
			c-0.8308-0.4797-1.5041-0.0914-1.5068,0.8586L3.2052,22.3774l-0.1119-0.0646L3.1237,11.623
			C3.1266,10.5995,3.8519,10.1862,4.7427,10.7005z"/><polygon fill="#E3E7F0" points="12.834 23.063 29.148 13.582 29.104 29.302 12.789 38.784"/><path fill="#E3E7F0" d="M29.1463,13.5825l-16.3102,9.4782c0-1.0512-0.7445-2.3397-1.6579-2.8715
			c-0.463-0.2691-0.8822-0.2878-1.1887-0.1127l16.3164-9.4846c0.3066-0.175,0.7257-0.15,1.1887,0.1191
			C28.4081,11.2363,29.1526,12.5252,29.1463,13.5825z"/><polygon fill="#D3DBEA" points="14.115 22.386 23.92 16.688 23.866 18.102 14.062 23.8"/><polygon fill="#D3DBEA" points="14.115 25.392 23.92 19.694 23.866 21.108 14.062 26.806"/><polygon fill="#D3DBEA" points="14.115 28.398 26.975 20.924 26.922 22.338 14.062 29.812"/><polygon fill="#D3DBEA" points="14.115 31.403 22.392 26.594 22.338 28.008 14.062 32.818"/><polygon fill="#D3DBEA" points="14.115 34.409 23.92 28.712 23.866 30.126 14.062 35.824"/><g><path fill="#D3DBEA" d="M27.8512 29.3008l.0005-.1949-13.8093 8.025-.0044 1.3857 13.9825-8.1259C27.912 30.0275 27.8512 29.6585 27.8512 29.3008zM14.9134 40.2951l.6202.3583 12.3657-7.1863c-.3014-.2603-.5703-.5725-.7998-.9183L14.4794 39.883C14.6123 40.0581 14.762 40.2072 14.9134 40.2951z"/></g><g><path fill="#D3DBEA" d="M6.9322,11.6742l14.3879-8.3613c0.2538,0.1411,0.2827,0.6255,0.2139,1.2588L7.1461,12.933
			C7.2159,12.3031,7.1765,11.8354,6.9322,11.6742z"/></g><g><path fill="#D3DBEA" d="M13.7303,20.2392l13.3302-7.7467c0.2538,0.1411,0.2827,0.6255,0.2139,1.2588L13.9442,21.498
			C14.014,20.8681,13.9745,20.4003,13.7303,20.2392z"/></g><g><path fill="#7BB1FF" d="M45.9566,31.2073l-1.41,0.8203c-0.13,0.0698-0.31,0.0596-0.5-0.0503l-8.69-5.02
				c-0.39-0.2197-0.71-0.7798-0.71-1.2197l0.03-9.9902c0-0.2197,0.08-0.3799,0.21-0.4502l1.41-0.8198
				c-0.13,0.0698-0.21,0.23-0.21,0.4502l-0.03,9.9897c0,0.4502,0.32,1,0.71,1.2202l8.69,5.02
				C45.6466,31.2674,45.8267,31.2777,45.9566,31.2073z"/><path fill="#FFF" d="M44.6513,20.1113c0.3895,0.2249,0.7077,0.7757,0.7064,1.2235l-0.0283,9.9849
				c-0.0013,0.4474-0.3215,0.6301-0.711,0.4052l-8.6895-5.0169c-0.3895-0.2249-0.7077-0.7761-0.7064-1.2235l0.0283-9.9849
				c0.0013-0.4478,0.3215-0.6301,0.711-0.4052L44.6513,20.1113z"/><path fill="#B4BED7" d="M42.1251,24.5214c0.1354,0.0937,0.1348,0.3221-0.0007,0.2542l-1.825-0.8771l-0.2711-0.1303
								l-0.0406-0.0288l-0.1404-0.1349l-0.4145-0.3986c-0.0948-0.0911-0.0943-0.2364,0.0006-0.2179l0.377,0.0733l0.1791,0.0349
								l0.0407,0.0181l0.3212,0.2159L42.1251,24.5214z M40.0782,23.6722c0.0994,0.0574,0.1764,0.0082,0.1767-0.1007
								c0.0003-0.114-0.0762-0.2465-0.1756-0.3039c-0.0948-0.0548-0.1764-0.0136-0.1767,0.1005
								C39.9023,23.477,39.9834,23.6174,40.0782,23.6722" enable-background="new"/><path fill="#B4BED7" d="M40.03 23.1142l-.0407-.0181-.1791-.0349.1701-3.1723c.0025-.0792.0557-.0888.1093-.0579.0536.031.1077.1025.112.1856l.1496 3.3135L40.03 23.1142zM35.7112 20.6054c.1604.0926.2912.319.2907.5033-.0005.1846-.1322.2594-.2926.1668-.1604-.0926-.2912-.319-.2907-.5036C35.4191 20.5876 35.5507 20.5128 35.7112 20.6054zM43.8867 22.8062c.1012.0584.1987.1754.2504.314.0822.2041.033.3827-.1082.3962-.0442.0036-.0929-.0108-.1413-.0388-.1012-.0584-.2013-.176-.2569-.3141-.0773-.207-.0281-.3856.1082-.3962C43.7857 22.7627 43.8367 22.7773 43.8867 22.8062zM42.289 20.0373c.0501.0289.101.0732.1475.1316.1358.1734.1839.4027.1008.5168-.0523.0784-.1502.0805-.25.0229-.0493-.0285-.0991-.0715-.1441-.1272-.1407-.1762-.1887-.4055-.1056-.5196C42.0899 19.9833 42.1878 19.9788 42.289 20.0373zM37.8855 26.223c.0495.0286.0999.0725.1465.131.1407.1708.1839.4027.1056.5196-.0562.0735-.1545.0769-.2557.0184-.0485-.028-.0977-.0703-.1432-.1255-.1407-.1762-.1839-.4027-.1056-.5199C37.6886 26.1703 37.7854 26.1652 37.8855 26.223zM37.9118 17.5101c.1001.0578.1965.1745.2515.3149.0773.2067.033.3827-.1082.3962-.0467.0028-.0972-.0121-.1467-.0407-.1001-.0578-.1966-.1721-.2516-.3125-.0773-.2067-.033-.3827.1082-.3962C37.8118 17.4672 37.8622 17.4815 37.9118 17.5101zM42.2645 28.7512c.0997.0576.1973.1749.249.3131.0822.2098.033.383-.1034.3993-.0457.0024-.0955-.0123-.1445-.0406-.1024-.0591-.2014-.1764-.2537-.3125-.0822-.2095-.033-.3881.1082-.3962C42.1653 28.7088 42.2152 28.7227 42.2645 28.7512zM44.4659 25.66c.1604.0926.2912.319.2907.5033-.0005.1846-.1322.2594-.2926.1668-.1604-.0926-.2912-.319-.2907-.5036C44.1738 25.6422 44.3055 25.5674 44.4659 25.66zM36.2859 23.4569c.1024.0591.2014.1761.2537.3122.0822.2095.033.3881-.1082.3962-.0451.0055-.0951-.0084-.1446-.037-.1001-.0578-.1987-.1757-.2537-.3158-.0773-.2013-.0281-.3799.1082-.3965C36.1871 23.4136 36.2369 23.4286 36.2859 23.4569zM40.1004 18.0983c.1604.0926.2912.3193.2907.5036s-.1322.2594-.2926.1668c-.1604-.0926-.2912-.3193-.2907-.5036S39.94 18.0057 40.1004 18.0983zM40.0718 28.164c.1604.0926.2913.3136.2907.5036-.0005.1843-.1322.2536-.2926.161-.1604-.0926-.2912-.3135-.2907-.4978C39.7798 28.1407 39.9114 28.0713 40.0718 28.164zM36.303 18.4277c.0495.0286.0993.0722.1443.1298.1407.1705.1888.4052.1057.5196-.0529.0754-.1523.0778-.2547.0187-.049-.0283-.0987-.0707-.1443-.1261-.1358-.1734-.1839-.4082-.1056-.5196C36.1039 18.3735 36.2029 18.3699 36.303 18.4277zM43.8752 27.8386c.0485.028.0971.0697.1411.124.1407.1765.1887.4113.1056.5199-.0523.0781-.1502.0827-.2514.0242-.0501-.0289-.101-.0732-.1475-.1316-.1359-.168-.1839-.4027-.1056-.5196C43.6735 27.782 43.774 27.7802 43.8752 27.8386z"/><path fill="#EFA143" d="M40.0007,21.7021c0.8723,0.5036,1.577,1.7243,1.5742,2.7266
									c-0.0028,1.0023-0.7122,1.4066-1.5845,0.903c-0.8723-0.5036-1.577-1.7243-1.5742-2.7266
									C38.4191,21.6027,39.1284,21.1985,40.0007,21.7021z"/><path fill="#FFDD94" d="M40.0007,21.7021c0.8723,0.5036,1.577,1.7243,1.5742,2.7266
									c-0.0028,1.0023-0.7122,1.4065-1.5845,0.9029c-0.8723-0.5036-1.577-1.7243-1.5742-2.7266
									C38.4191,21.6028,39.1284,21.1985,40.0007,21.7021z M39.9913,25.0124c0.7188,0.415,1.3034,0.0819,1.3057-0.7441
									c0.0023-0.826-0.5784-1.8319-1.2972-2.2469c-0.7188-0.415-1.3034-0.0819-1.3057,0.7441
									C38.6917,23.5914,39.2725,24.5974,39.9913,25.0124"/><path fill="#FFDD94" d="M40.1192,22.7137l-0.0005,0.1898c0.1753,0.1516,0.3034,0.386,0.3029,0.5743l-0.2333-0.1347
								c0.0002-0.0797-0.0851-0.197-0.1873-0.256c-0.1016-0.0586-0.1879-0.0404-0.1881,0.0393
								c-0.0002,0.0805,0.0857,0.1982,0.1873,0.2568c0.232,0.134,0.4205,0.4292,0.4198,0.6581
								c-0.0005,0.1898-0.1295,0.2759-0.3051,0.224l-0.0005,0.1898l-0.2333-0.1347l0.0005-0.1898
								c-0.1753-0.1508-0.3041-0.3857-0.3035-0.5755l0.2333,0.1347c-0.0002,0.0798,0.0857,0.1975,0.1873,0.2561
								c0.1022,0.059,0.1879,0.0404,0.1881-0.0394c0.0002-0.0798-0.0851-0.1963-0.1873-0.2553
								c-0.232-0.134-0.4205-0.4299-0.4198-0.6596c0.0005-0.1883,0.1302-0.274,0.3058-0.2229l0.0005-0.1898L40.1192,22.7137z"/><g><polygon fill="#FFF" points="44.785 21.585 46.194 20.766 46.166 30.751 44.757 31.57"/><path fill="#FFF" d="M45.9588 31.2041l-1.4096.8192c.1275-.0741.2068-.231.2075-.4533l1.4096-.8192C46.1656 30.9731 46.0862 31.13 45.9588 31.2041zM34.8854 15.2964l1.4096-.8191c.1291-.075.3076-.065.5036.0482l-1.4096.8192C35.193 15.2314 35.0145 15.2214 34.8854 15.2964zM44.0786 20.3615l1.4096-.8192c.3895.2249.7076.7757.7064 1.2235L44.785 21.585C44.7862 21.1373 44.468 20.5864 44.0786 20.3615z"/><polygon fill="#FFF" points="35.389 15.345 36.799 14.525 45.488 19.542 44.079 20.361"/><path fill="#7BB1FF" d="M46.9066,21.1776l-0.03,9.98c0,0.4502-0.16,0.77-0.41,0.9102l-1.41,0.8198
						c0.25-0.1499,0.41-0.46,0.41-0.9102l0.03-9.98c0-0.9102-0.63-2-1.42-2.4502l-8.69-5.0195c-0.39-0.2305-0.75-0.25-1-0.1001
						l1.4-0.8198c0.26-0.1504,0.62-0.1201,1.01,0.0996l8.69,5.02C46.2766,19.1776,46.9066,20.2777,46.9066,21.1776z"/></g><g><path fill="#5793FB" d="M44.0809,19.5472c0.7853,0.4534,1.4153,1.5447,1.4128,2.4471l-0.0283,9.9849
				c-0.0026,0.9023-0.6367,1.2638-1.422,0.8104l-8.6895-5.0169c-0.7853-0.4534-1.4153-1.5447-1.4128-2.4471l0.0283-9.9849
				c0.0026-0.9023,0.6367-1.2638,1.422-0.8104L44.0809,19.5472z M44.7566,31.57l0.0283-9.9849
				c0.0013-0.4478-0.3169-0.9987-0.7064-1.2235l-8.6895-5.0169c-0.3895-0.2249-0.7097-0.0426-0.711,0.4052l-0.0283,9.9849
				c-0.0013,0.4474,0.3169,0.9987,0.7064,1.2235l8.6895,5.0169C44.4351,32.2001,44.7554,32.0174,44.7566,31.57"/></g></g></svg>