<svg xmlns="http://www.w3.org/2000/svg" enable-background="new 0 0 32 32" viewBox="0 0 32 32"><path fill="#55c1fa" d="M9.93 13.99c.93 0 1.81-.27 2.55-.74.7-.44 1.27-1.05 1.66-1.78.08-.15.15-.3.21-.46-.57-1.05-.89-2.26-.89-3.54 0-.46.04-.91.13-1.34-.89-1.04-2.2-1.7-3.66-1.7-2.64 0-4.79 2.14-4.79 4.78C5.14 11.85 7.29 13.99 9.93 13.99zM11.08 15.88c-.37.08-.76.11-1.15.11-1.92 0-3.66-.8-4.9-2.1-1.48 1.33-2.41 3.26-2.41 5.41v6.69c0 1.34 1.09 2.44 2.44 2.44h5.55c-.09-.36-.14-.74-.14-1.13v-7.9C10.47 18.17 10.69 16.98 11.08 15.88zM20.927 12.943c3.017 0 5.471-2.455 5.471-5.471C26.398 4.455 23.943 2 20.927 2c-3.017 0-5.472 2.455-5.472 5.472C15.455 10.488 17.91 12.943 20.927 12.943z"/><path fill="#55c1fa" d="M26.18,12.78c-1.35,1.33-3.2,2.16-5.25,2.16s-3.91-0.83-5.26-2.17c-1.95,1.56-3.2,3.95-3.2,6.63v7.9
			c0,1.49,1.22,2.7,2.71,2.7h11.5c1.49,0,2.7-1.21,2.7-2.7v-7.9C29.38,16.72,28.13,14.33,26.18,12.78z"/></svg>